Wilmette-Regular.ufo
<glyph name="exclam" format="2">
  <advance width="280"/>
  <unicode hex="0021"/>
  <outline>
    <contour>
      <point x="160" y="220" type="curve"/>
      <point x="120" y="220" type="line"/>
      <point x="110" y="460"/>
      <point x="70" y="585"/>
      <point x="70" y="675" type="curve" smooth="yes"/>
      <point x="70" y="715"/>
      <point x="90" y="750"/>
      <point x="140" y="750" type="curve" smooth="yes"/>
      <point x="190" y="750"/>
      <point x="210" y="715"/>
      <point x="210" y="675" type="curve" smooth="yes"/>
      <point x="210" y="585"/>
      <point x="170" y="460"/>
    </contour>
    <contour>
      <point x="140" y="120" type="curve" smooth="yes"/>
      <point x="180" y="120"/>
      <point x="210" y="90"/>
      <point x="210" y="50" type="curve" smooth="yes"/>
      <point x="210" y="10"/>
      <point x="180" y="-20"/>
      <point x="140" y="-20" type="curve" smooth="yes"/>
      <point x="100" y="-20"/>
      <point x="70" y="10"/>
      <point x="70" y="50" type="curve" smooth="yes"/>
      <point x="70" y="90"/>
      <point x="100" y="120"/>
    </contour>
  </outline>
</glyph>
<glyph name="ampersand" format="2">
  <advance width="755"/>
  <unicode hex="0026"/>
  <outline>
    <contour>
      <point x="224.001" y="570.999" type="curve" smooth="yes"/>
      <point x="224.001" y="540.999"/>
      <point x="255.001" y="506.999"/>
      <point x="309.001" y="459.999" type="curve"/>
      <point x="369.001" y="494.999"/>
      <point x="396.001" y="524.999"/>
      <point x="396.001" y="557.999" type="curve" smooth="yes"/>
      <point x="396.001" y="613.384"/>
      <point x="353.001" y="649.999"/>
      <point x="315.001" y="649.999" type="curve" smooth="yes"/>
      <point x="270.001" y="649.999"/>
      <point x="224.001" y="630.499"/>
    </contour>
    <contour>
      <point x="135.001" y="221.999" type="curve" smooth="yes"/>
      <point x="135.001" y="140.999"/>
      <point x="222.001" y="62.999"/>
      <point x="312.001" y="62.999" type="curve" smooth="yes"/>
      <point x="360.001" y="62.999"/>
      <point x="392.001" y="76.999"/>
      <point x="440.001" y="118.999" type="curve"/>
      <point x="385.001" y="215.999"/>
      <point x="302.001" y="326.999"/>
      <point x="250.001" y="372.999" type="curve"/>
      <point x="169.001" y="316.999"/>
      <point x="135.001" y="271.999"/>
    </contour>
    <contour>
      <point x="515" y="440" type="line"/>
      <point x="725" y="440" type="line"/>
      <point x="725" y="400" type="line"/>
      <point x="630" y="380"/>
      <point x="639.001" y="308.999"/>
      <point x="535.001" y="169.999" type="curve"/>
      <point x="554.001" y="146.999"/>
      <point x="577.001" y="117.999"/>
      <point x="590.001" y="104.999" type="curve" smooth="yes"/>
      <point x="647.069" y="47.9302"/>
      <point x="700" y="45"/>
      <point x="730" y="45" type="curve"/>
      <point x="730" y="0" type="line"/>
      <point x="710" y="-5"/>
      <point x="690" y="-10"/>
      <point x="645" y="-10" type="curve" smooth="yes"/>
      <point x="567" y="-10"/>
      <point x="508" y="21"/>
      <point x="464" y="87" type="curve"/>
      <point x="385" y="12.8184"/>
      <point x="326" y="-15"/>
      <point x="248" y="-15" type="curve" smooth="yes"/>
      <point x="109" y="-15"/>
      <point x="40" y="82.5566"/>
      <point x="40" y="173" type="curve" smooth="yes"/>
      <point x="40" y="255"/>
      <point x="88" y="306"/>
      <point x="223" y="401" type="curve"/>
      <point x="171" y="458"/>
      <point x="150" y="498"/>
      <point x="150" y="537" type="curve" smooth="yes"/>
      <point x="150" y="669.506"/>
      <point x="281" y="700"/>
      <point x="343" y="700" type="curve" smooth="yes"/>
      <point x="421" y="700"/>
      <point x="471" y="659.303"/>
      <point x="471" y="570" type="curve" smooth="yes"/>
      <point x="471" y="527"/>
      <point x="440" y="495"/>
      <point x="338" y="431" type="curve"/>
      <point x="391" y="385"/>
      <point x="451" y="296"/>
      <point x="510" y="207" type="curve"/>
      <point x="552" y="263"/>
      <point x="578" y="319"/>
      <point x="578" y="345" type="curve" smooth="yes"/>
      <point x="578" y="372"/>
      <point x="553" y="394"/>
      <point x="515" y="401" type="curve"/>
    </contour>
  </outline>
</glyph>
<glyph name="asterisk" format="2">
  <advance width="580"/>
  <unicode hex="002A"/>
  <outline>
    <contour>
      <point x="277" y="505" type="line"/>
      <point x="173" y="383" type="line"/>
      <point x="138" y="418" type="line"/>
      <point x="260" y="523" type="line"/>
      <point x="100" y="510" type="line"/>
      <point x="100" y="560" type="line"/>
      <point x="260" y="547" type="line"/>
      <point x="138" y="652" type="line"/>
      <point x="173" y="687" type="line"/>
      <point x="277" y="565" type="line"/>
      <point x="264" y="725" type="line"/>
      <point x="316" y="725" type="line"/>
      <point x="303" y="565" type="line"/>
      <point x="407" y="687" type="line"/>
      <point x="442" y="652" type="line"/>
      <point x="320" y="547" type="line"/>
      <point x="480" y="560" type="line"/>
      <point x="480" y="510" type="line"/>
      <point x="320" y="523" type="line"/>
      <point x="442" y="418" type="line"/>
      <point x="407" y="383" type="line"/>
      <point x="303" y="505" type="line"/>
      <point x="316" y="345" type="line"/>
      <point x="264" y="345" type="line"/>
    </contour>
  </outline>
</glyph>
<glyph name="plus" format="2">
  <advance width="608"/>
  <unicode hex="002B"/>
  <outline>
    <contour>
      <point x="40" y="350" type="line"/>
      <point x="269" y="350" type="line"/>
      <point x="269" y="579" type="line"/>
      <point x="339" y="579" type="line"/>
      <point x="339" y="350" type="line"/>
      <point x="568" y="350" type="line"/>
      <point x="568" y="280" type="line"/>
      <point x="339" y="280" type="line"/>
      <point x="339" y="51" type="line"/>
      <point x="269" y="51" type="line"/>
      <point x="269" y="280" type="line"/>
      <point x="40" y="280" type="line"/>
    </contour>
  </outline>
</glyph>
<glyph name="comma" format="2">
  <advance width="230"/>
  <unicode hex="002C"/>
  <outline>
    <contour>
      <point x="70" y="-150" type="curve"/>
      <point x="50" y="-120" type="line"/>
      <point x="90" y="-100"/>
      <point x="120" y="-60"/>
      <point x="120" y="-30" type="curve" smooth="yes"/>
      <point x="120" y="-10"/>
      <point x="110" y="0"/>
      <point x="95" y="0" type="curve" smooth="yes"/>
      <point x="55" y="0"/>
      <point x="30" y="35"/>
      <point x="30" y="70" type="curve" smooth="yes"/>
      <point x="30" y="105"/>
      <point x="55" y="135"/>
      <point x="95" y="135" type="curve" smooth="yes"/>
      <point x="160" y="135"/>
      <point x="180" y="80"/>
      <point x="180" y="50" type="curve" smooth="yes"/>
      <point x="180" y="-20"/>
      <point x="170" y="-100"/>
    </contour>
  </outline>
</glyph>
<glyph name="hyphen" format="2">
  <advance width="390"/>
  <unicode hex="002D"/>
  <outline>
    <contour>
      <point x="40" y="240" type="line"/>
      <point x="40" y="300" type="line"/>
      <point x="350" y="300" type="line"/>
      <point x="350" y="240" type="line"/>
    </contour>
  </outline>
</glyph>
<glyph name="period" format="2">
  <advance width="313"/>
  <unicode hex="002E"/>
  <outline>
    <contour>
      <point x="156.5" y="-20" type="curve" smooth="yes"/>
      <point x="116" y="-20"/>
      <point x="80" y="11.5"/>
      <point x="80" y="56.5" type="curve" smooth="yes"/>
      <point x="80" y="101.5"/>
      <point x="116" y="133"/>
      <point x="156.5" y="133" type="curve" smooth="yes"/>
      <point x="197" y="133"/>
      <point x="233" y="101.5"/>
      <point x="233" y="56.5" type="curve" smooth="yes"/>
      <point x="233" y="11.5"/>
      <point x="197" y="-20"/>
    </contour>
  </outline>
</glyph>
<glyph name="zero" format="2">
  <advance width="607"/>
  <unicode hex="0030"/>
  <outline>
    <contour>
      <point x="293" y="-15" type="curve" smooth="yes"/>
      <point x="169.442" y="-15"/>
      <point x="40" y="97.5117"/>
      <point x="40" y="336" type="curve" smooth="yes"/>
      <point x="40" y="539.609"/>
      <point x="144.345" y="700"/>
      <point x="314" y="700" type="curve" smooth="yes"/>
      <point x="442.707" y="700"/>
      <point x="567" y="587.809"/>
      <point x="567" y="350" type="curve" smooth="yes"/>
      <point x="567" y="124.645"/>
      <point x="457.4" y="-15"/>
    </contour>
    <contour>
      <point x="307" y="25" type="curve" smooth="yes"/>
      <point x="434.105" y="25"/>
      <point x="457" y="195.247"/>
      <point x="457" y="328" type="curve" smooth="yes"/>
      <point x="457" y="564.134"/>
      <point x="381.289" y="660"/>
      <point x="300" y="660" type="curve" smooth="yes"/>
      <point x="179.211" y="660"/>
      <point x="150" y="483.244"/>
      <point x="150" y="358" type="curve" smooth="yes"/>
      <point x="150" y="114.07"/>
      <point x="225.711" y="25"/>
    </contour>
  </outline>
</glyph>
<glyph name="two" format="2">
  <advance width="555"/>
  <unicode hex="0032"/>
  <outline>
    <contour>
      <point x="515" y="165" type="line"/>
      <point x="466" y="0" type="line"/>
      <point x="40" y="0" type="line"/>
      <point x="40" y="36" type="line"/>
      <point x="235.118" y="256.276"/>
      <point x="391" y="362.617"/>
      <point x="391" y="495" type="curve" smooth="yes"/>
      <point x="391" y="568"/>
      <point x="352.359" y="628"/>
      <point x="254" y="628" type="curve" smooth="yes"/>
      <point x="184" y="628"/>
      <point x="122" y="573"/>
      <point x="81" y="476" type="curve"/>
      <point x="44" y="491" type="line"/>
      <point x="92" y="625"/>
      <point x="176" y="700"/>
      <point x="279" y="700" type="curve" smooth="yes"/>
      <point x="426.497" y="700"/>
      <point x="501" y="617"/>
      <point x="501" y="514" type="curve" smooth="yes"/>
      <point x="501" y="334.038"/>
      <point x="294.832" y="274.051"/>
      <point x="133" y="81" type="curve"/>
      <point x="363" y="81" type="line" smooth="yes"/>
      <point x="427" y="81"/>
      <point x="452" y="99"/>
      <point x="480" y="165" type="curve"/>
    </contour>
  </outline>
</glyph>
<glyph name="four" format="2">
  <advance width="567"/>
  <unicode hex="0034"/>
  <outline>
    <contour>
      <point x="314" y="236" type="line"/>
      <point x="314" y="613" type="line"/>
      <point x="312" y="613" type="line"/>
      <point x="81" y="236" type="line"/>
    </contour>
    <contour>
      <point x="424" y="187" type="line"/>
      <point x="424" y="115" type="line" smooth="yes"/>
      <point x="424" y="57"/>
      <point x="449" y="36"/>
      <point x="512" y="36" type="curve"/>
      <point x="512" y="0" type="line"/>
      <point x="224" y="0" type="line"/>
      <point x="224" y="36" type="line"/>
      <point x="292" y="36"/>
      <point x="314" y="60"/>
      <point x="314" y="117" type="curve" smooth="yes"/>
      <point x="314" y="187" type="line"/>
      <point x="40" y="187" type="line"/>
      <point x="40" y="245" type="line"/>
      <point x="328" y="700" type="line"/>
      <point x="424" y="700" type="line"/>
      <point x="424" y="236" type="line"/>
      <point x="464" y="236"/>
      <point x="478" y="251"/>
      <point x="493" y="300" type="curve"/>
      <point x="527" y="300" type="line"/>
      <point x="512" y="187" type="line"/>
    </contour>
  </outline>
</glyph>
<glyph name="five" format="2">
  <advance width="510"/>
  <unicode hex="0035"/>
  <outline>
    <contour>
      <point x="121" y="700" type="line"/>
      <point x="367" y="700" type="line" smooth="yes"/>
      <point x="407" y="700"/>
      <point x="417" y="702"/>
      <point x="425" y="712" type="curve"/>
      <point x="459" y="712" type="line"/>
      <point x="440" y="619" type="line"/>
      <point x="140" y="619" type="line"/>
      <point x="110" y="481" type="line"/>
      <point x="159.966" y="500"/>
      <point x="194.725" y="508"/>
      <point x="236" y="508" type="curve" smooth="yes"/>
      <point x="377.688" y="508"/>
      <point x="470" y="399.703"/>
      <point x="470" y="260" type="curve" smooth="yes"/>
      <point x="470" y="101.432"/>
      <point x="343.461" y="-15"/>
      <point x="173" y="-15" type="curve" smooth="yes"/>
      <point x="128" y="-15"/>
      <point x="82" y="-7"/>
      <point x="40" y="9" type="curve"/>
      <point x="55" y="43" type="line"/>
      <point x="93" y="35"/>
      <point x="122" y="31"/>
      <point x="150" y="31" type="curve" smooth="yes"/>
      <point x="266" y="31"/>
      <point x="360" y="126.681"/>
      <point x="360" y="246" type="curve" smooth="yes"/>
      <point x="360" y="352.142"/>
      <point x="291" y="427"/>
      <point x="196" y="427" type="curve" smooth="yes"/>
      <point x="149" y="427"/>
      <point x="112" y="414"/>
      <point x="73" y="383" type="curve"/>
      <point x="50" y="389" type="line"/>
    </contour>
  </outline>
</glyph>
<glyph name="seven" format="2">
  <advance width="527"/>
  <unicode hex="0037"/>
  <outline>
    <contour>
      <point x="299" y="0" type="curve"/>
      <point x="189" y="0" type="line"/>
      <point x="189" y="149.601"/>
      <point x="272" y="342.563"/>
      <point x="414" y="619" type="curve"/>
      <point x="188" y="619" type="line" smooth="yes"/>
      <point x="124" y="619"/>
      <point x="94" y="596"/>
      <point x="77" y="532" type="curve"/>
      <point x="40" y="532" type="line"/>
      <point x="81" y="712" type="line"/>
      <point x="105" y="712" type="line"/>
      <point x="114" y="705"/>
      <point x="125" y="702"/>
      <point x="137" y="701" type="curve" smooth="yes"/>
      <point x="149" y="700"/>
      <point x="163" y="700"/>
      <point x="179" y="700" type="curve" smooth="yes"/>
      <point x="487" y="700" type="line"/>
      <point x="487" y="649" type="line"/>
      <point x="394" y="491.34"/>
      <point x="300" y="192.216"/>
    </contour>
  </outline>
</glyph>
<glyph name="colon" format="2">
  <advance width="299"/>
  <unicode hex="003A"/>
  <outline>
    <contour>
      <point x="149" y="467" type="curve" smooth="yes"/>
      <point x="188" y="467"/>
      <point x="219" y="437"/>
      <point x="219" y="399" type="curve" smooth="yes"/>
      <point x="219" y="360"/>
      <point x="188" y="328"/>
      <point x="149" y="328" type="curve" smooth="yes"/>
      <point x="111" y="328"/>
      <point x="80" y="360"/>
      <point x="80" y="399" type="curve" smooth="yes"/>
      <point x="80" y="437"/>
      <point x="111" y="467"/>
    </contour>
    <contour>
      <point x="149" y="119" type="curve" smooth="yes"/>
      <point x="188" y="119"/>
      <point x="219" y="89"/>
      <point x="219" y="51" type="curve" smooth="yes"/>
      <point x="219" y="12"/>
      <point x="188" y="-20"/>
      <point x="149" y="-20" type="curve" smooth="yes"/>
      <point x="111" y="-20"/>
      <point x="80" y="12"/>
      <point x="80" y="51" type="curve" smooth="yes"/>
      <point x="80" y="89"/>
      <point x="111" y="119"/>
    </contour>
  </outline>
</glyph>
<glyph name="less" format="2">
  <advance width="594"/>
  <unicode hex="003C"/>
  <outline>
    <contour>
      <point x="554" y="37" type="line"/>
      <point x="80" y="261" type="line"/>
      <point x="80" y="331" type="line"/>
      <point x="554" y="555" type="line"/>
      <point x="554" y="472" type="line"/>
      <point x="184" y="296" type="line"/>
      <point x="554" y="120" type="line"/>
    </contour>
  </outline>
</glyph>
<glyph name="at" format="2">
  <advance width="865"/>
  <unicode hex="0040"/>
  <outline>
    <contour>
      <point x="472" y="428" type="curve" smooth="yes"/>
      <point x="394" y="428"/>
      <point x="302" y="232"/>
      <point x="302" y="164" type="curve" smooth="yes"/>
      <point x="302" y="131"/>
      <point x="323" y="110"/>
      <point x="345" y="110" type="curve" smooth="yes"/>
      <point x="409" y="110"/>
      <point x="517" y="243"/>
      <point x="517" y="372" type="curve" smooth="yes"/>
      <point x="517" y="407"/>
      <point x="497" y="428"/>
    </contour>
    <contour>
      <point x="549" y="158" type="line" smooth="yes"/>
      <point x="545" y="144"/>
      <point x="543" y="132"/>
      <point x="543" y="122" type="curve" smooth="yes"/>
      <point x="543" y="97"/>
      <point x="553" y="88"/>
      <point x="568" y="88" type="curve" smooth="yes"/>
      <point x="636" y="88"/>
      <point x="743" y="195"/>
      <point x="743" y="356" type="curve" smooth="yes"/>
      <point x="743" y="491"/>
      <point x="638" y="618"/>
      <point x="467" y="618" type="curve" smooth="yes"/>
      <point x="239" y="618"/>
      <point x="99" y="420"/>
      <point x="99" y="226" type="curve" smooth="yes"/>
      <point x="99" y="19"/>
      <point x="237" y="-124"/>
      <point x="434" y="-124" type="curve" smooth="yes"/>
      <point x="591" y="-124"/>
      <point x="714" y="-40"/>
      <point x="779" y="113" type="curve"/>
      <point x="780" y="116" type="line"/>
      <point x="782" y="118" type="line"/>
      <point x="785" y="118" type="line"/>
      <point x="819" y="118" type="line"/>
      <point x="825" y="118" type="line"/>
      <point x="823" y="113" type="line"/>
      <point x="821" y="107" type="line"/>
      <point x="777" y="-47"/>
      <point x="617" y="-170"/>
      <point x="423" y="-170" type="curve" smooth="yes"/>
      <point x="203" y="-170"/>
      <point x="40" y="-19"/>
      <point x="40" y="229" type="curve" smooth="yes"/>
      <point x="40" y="474"/>
      <point x="226" y="668"/>
      <point x="464" y="668" type="curve" smooth="yes"/>
      <point x="656" y="668"/>
      <point x="788" y="541"/>
      <point x="788" y="357" type="curve" smooth="yes"/>
      <point x="788" y="233"/>
      <point x="711" y="38"/>
      <point x="537" y="38" type="curve" smooth="yes"/>
      <point x="488" y="38"/>
      <point x="460" y="63"/>
      <point x="460" y="109" type="curve" smooth="yes"/>
      <point x="460" y="120"/>
      <point x="461" y="132"/>
      <point x="462" y="143" type="curve"/>
      <point x="417" y="88"/>
      <point x="362" y="38"/>
      <point x="304" y="38" type="curve" smooth="yes"/>
      <point x="252" y="38"/>
      <point x="215" y="90"/>
      <point x="215" y="151" type="curve" smooth="yes"/>
      <point x="215" y="294"/>
      <point x="360" y="467"/>
      <point x="466" y="467" type="curve" smooth="yes"/>
      <point x="497" y="467"/>
      <point x="526" y="452"/>
      <point x="541" y="424" type="curve"/>
      <point x="548" y="450" type="line"/>
      <point x="549" y="453" type="line"/>
      <point x="552" y="454" type="line"/>
      <point x="631" y="465" type="line"/>
      <point x="638" y="466" type="line"/>
      <point x="636" y="459" type="line"/>
    </contour>
  </outline>
</glyph>
<glyph name="G" format="2">
  <advance width="664"/>
  <unicode hex="0047"/>
  <outline>
    <contour>
      <point x="404" y="-15" type="curve" smooth="yes"/>
      <point x="383" y="-15" type="line" smooth="yes"/>
      <point x="215.488" y="-15"/>
      <point x="40" y="99.7559"/>
      <point x="40" y="343" type="curve" smooth="yes"/>
      <point x="40" y="551.084"/>
      <point x="178.619" y="715"/>
      <point x="404" y="715" type="curve" smooth="yes"/>
      <point x="490.464" y="715"/>
      <point x="563.638" y="687.292"/>
      <point x="624" y="641" type="curve"/>
      <point x="624" y="494" type="line"/>
      <point x="580" y="494" type="line"/>
      <point x="554.559" y="620.962"/>
      <point x="480.287" y="675"/>
      <point x="407" y="675" type="curve" smooth="yes"/>
      <point x="390" y="675" type="line" smooth="yes"/>
      <point x="204.79" y="675"/>
      <point x="160" y="493.562"/>
      <point x="160" y="365" type="curve" smooth="yes"/>
      <point x="160" y="115.942"/>
      <point x="274.289" y="25"/>
      <point x="397" y="25" type="curve" smooth="yes"/>
      <point x="407" y="25" type="line" smooth="yes"/>
      <point x="449.072" y="25"/>
      <point x="491.469" y="42.809"/>
      <point x="524.766" y="82" type="curve"/>
      <point x="514" y="82" type="line"/>
      <point x="514" y="230" type="line" smooth="yes"/>
      <point x="514" y="250"/>
      <point x="507.333" y="265"/>
      <point x="494" y="270" type="curve" smooth="yes"/>
      <point x="434" y="290" type="line"/>
      <point x="434" y="320" type="line"/>
      <point x="694" y="320" type="line"/>
      <point x="694" y="290" type="line"/>
      <point x="644" y="270" type="line" smooth="yes"/>
      <point x="630.667" y="265"/>
      <point x="624" y="250"/>
      <point x="624" y="230" type="curve" smooth="yes"/>
      <point x="624" y="206" type="line"/>
      <point x="624" y="82" type="line"/>
      <point x="624" y="59" type="line"/>
      <point x="563.638" y="12.708"/>
      <point x="490.464" y="-15"/>
    </contour>
  </outline>
</glyph>
<glyph name="H" format="2">
  <advance width="880"/>
  <unicode hex="0048"/>
  <outline>
    <contour>
      <point x="840" y="30" type="line"/>
      <point x="840" y="0" type="line"/>
      <point x="510" y="0" type="line"/>
      <point x="510" y="30" type="line"/>
      <point x="590" y="50" type="line" smooth="yes"/>
      <point x="610" y="55"/>
      <point x="620" y="70"/>
      <point x="620" y="90" type="curve" smooth="yes"/>
      <point x="620" y="335" type="line"/>
      <point x="260" y="335" type="line"/>
      <point x="260" y="90" type="line" smooth="yes"/>
      <point x="260" y="70"/>
      <point x="270" y="55"/>
      <point x="290" y="50" type="curve" smooth="yes"/>
      <point x="370" y="30" type="line"/>
      <point x="370" y="0" type="line"/>
      <point x="40" y="0" type="line"/>
      <point x="40" y="30" type="line"/>
      <point x="120" y="50" type="line" smooth="yes"/>
      <point x="140" y="55"/>
      <point x="150" y="70"/>
      <point x="150" y="90" type="curve" smooth="yes"/>
      <point x="150" y="610" type="line" smooth="yes"/>
      <point x="150" y="630"/>
      <point x="140" y="645"/>
      <point x="120" y="650" type="curve" smooth="yes"/>
      <point x="40" y="670" type="line"/>
      <point x="40" y="700" type="line"/>
      <point x="370" y="700" type="line"/>
      <point x="370" y="670" type="line"/>
      <point x="290" y="650" type="line" smooth="yes"/>
      <point x="270" y="645"/>
      <point x="260" y="630"/>
      <point x="260" y="610" type="curve" smooth="yes"/>
      <point x="260" y="380" type="line"/>
      <point x="620" y="380" type="line"/>
      <point x="620" y="610" type="line" smooth="yes"/>
      <point x="620" y="630"/>
      <point x="610" y="645"/>
      <point x="590" y="650" type="curve" smooth="yes"/>
      <point x="510" y="670" type="line"/>
      <point x="510" y="700" type="line"/>
      <point x="840" y="700" type="line"/>
      <point x="840" y="670" type="line"/>
      <point x="760" y="650" type="line" smooth="yes"/>
      <point x="740" y="645"/>
      <point x="730" y="630"/>
      <point x="730" y="610" type="curve" smooth="yes"/>
      <point x="730" y="90" type="line" smooth="yes"/>
      <point x="730" y="70"/>
      <point x="740" y="55"/>
      <point x="760" y="50" type="curve" smooth="yes"/>
    </contour>
  </outline>
</glyph>
<glyph name="L" format="2">
  <advance width="670"/>
  <unicode hex="004C"/>
  <outline>
    <contour>
      <point x="650" y="210" type="line"/>
      <point x="620" y="0" type="line"/>
      <point x="40" y="0" type="line"/>
      <point x="40" y="30" type="line"/>
      <point x="120" y="50" type="line" smooth="yes"/>
      <point x="140" y="55"/>
      <point x="150" y="70"/>
      <point x="150" y="90" type="curve" smooth="yes"/>
      <point x="150" y="610" type="line" smooth="yes"/>
      <point x="150" y="630"/>
      <point x="140" y="645"/>
      <point x="120" y="650" type="curve" smooth="yes"/>
      <point x="40" y="670" type="line"/>
      <point x="40" y="700" type="line"/>
      <point x="370" y="700" type="line"/>
      <point x="370" y="670" type="line"/>
      <point x="290" y="650" type="line" smooth="yes"/>
      <point x="270" y="645"/>
      <point x="260" y="630"/>
      <point x="260" y="610" type="curve" smooth="yes"/>
      <point x="260" y="90" type="line" smooth="yes"/>
      <point x="260" y="60"/>
      <point x="280" y="50"/>
      <point x="300" y="50" type="curve" smooth="yes"/>
      <point x="450" y="50" type="line" smooth="yes"/>
      <point x="510" y="50"/>
      <point x="540" y="70"/>
      <point x="570" y="130" type="curve" smooth="yes"/>
      <point x="610" y="210" type="line"/>
    </contour>
  </outline>
</glyph>
<glyph name="Q" format="2">
  <advance width="785"/>
  <unicode hex="0051"/>
  <outline>
    <contour>
      <point x="1000" y="-145" type="curve"/>
      <point x="1020" y="-170" type="line"/>
      <point x="990" y="-210"/>
      <point x="930" y="-255"/>
      <point x="860" y="-255" type="curve" smooth="yes"/>
      <point x="630" y="-255"/>
      <point x="521" y="-15"/>
      <point x="383" y="-15" type="curve"/>
      <point x="480" y="0" type="line"/>
      <point x="550" y="0"/>
      <point x="760" y="-165"/>
      <point x="900" y="-165" type="curve" smooth="yes"/>
      <point x="930" y="-165"/>
      <point x="965" y="-165"/>
    </contour>
    <contour>
      <point x="383" y="-15" type="curve" smooth="yes"/>
      <point x="215" y="-15"/>
      <point x="40" y="100"/>
      <point x="40" y="343" type="curve" smooth="yes"/>
      <point x="40" y="551"/>
      <point x="179" y="715"/>
      <point x="404" y="715" type="curve" smooth="yes"/>
      <point x="578" y="715"/>
      <point x="747" y="600"/>
      <point x="747" y="357" type="curve" smooth="yes"/>
      <point x="747" y="127"/>
      <point x="600" y="-15"/>
    </contour>
    <contour>
      <point x="397" y="25" type="curve" smooth="yes"/>
      <point x="592" y="25"/>
      <point x="627" y="199"/>
      <point x="627" y="335" type="curve" smooth="yes"/>
      <point x="627" y="577"/>
      <point x="513" y="675"/>
      <point x="390" y="675" type="curve" smooth="yes"/>
      <point x="205" y="675"/>
      <point x="160" y="494"/>
      <point x="160" y="365" type="curve" smooth="yes"/>
      <point x="160" y="116"/>
      <point x="274" y="25"/>
    </contour>
  </outline>
</glyph>
<glyph name="R" format="2">
  <advance width="811"/>
  <unicode hex="0052"/>
  <outline>
    <contour>
      <point x="260" y="290" type="line"/>
      <point x="260" y="90" type="line" smooth="yes"/>
      <point x="260" y="70"/>
      <point x="270" y="55"/>
      <point x="290" y="50" type="curve" smooth="yes"/>
      <point x="370" y="30" type="line"/>
      <point x="370" y="0" type="line"/>
      <point x="40" y="0" type="line"/>
      <point x="40" y="30" type="line"/>
      <point x="120" y="50" type="line" smooth="yes"/>
      <point x="140" y="55"/>
      <point x="150" y="70"/>
      <point x="150" y="90" type="curve" smooth="yes"/>
      <point x="150" y="610" type="line" smooth="yes"/>
      <point x="150" y="630"/>
      <point x="140" y="645"/>
      <point x="120" y="650" type="curve" smooth="yes"/>
      <point x="40" y="670" type="line"/>
      <point x="40" y="700" type="line"/>
      <point x="380" y="700" type="line" smooth="yes"/>
      <point x="570" y="700"/>
      <point x="630" y="620"/>
      <point x="630" y="510" type="curve" smooth="yes"/>
      <point x="630" y="404.205"/>
      <point x="563.772" y="324.901"/>
      <point x="458.263" y="299.037" type="curve"/>
      <point x="646" y="88" type="line"/>
      <point x="690.651" y="55.6182"/>
      <point x="726.809" y="30"/>
      <point x="771" y="30" type="curve"/>
      <point x="771" y="0" type="line"/>
      <point x="599" y="0" type="line" smooth="yes"/>
      <point x="586" y="0"/>
      <point x="556" y="28"/>
      <point x="530" y="57" type="curve" smooth="yes"/>
      <point x="324" y="290" type="line"/>
    </contour>
    <contour>
      <point x="320" y="337" type="line"/>
      <point x="357" y="337" type="line" smooth="yes"/>
      <point x="469" y="337"/>
      <point x="510" y="420.271"/>
      <point x="510" y="510" type="curve" smooth="yes"/>
      <point x="510" y="601"/>
      <point x="460" y="660"/>
      <point x="350" y="660" type="curve" smooth="yes"/>
      <point x="300" y="660" type="line" smooth="yes"/>
      <point x="280" y="660"/>
      <point x="260" y="650"/>
      <point x="260" y="620" type="curve" smooth="yes"/>
      <point x="260" y="337" type="line"/>
    </contour>
  </outline>
</glyph>
<glyph name="X" format="2">
  <advance width="735"/>
  <unicode hex="0058"/>
  <outline>
    <contour>
      <point x="699" y="670" type="line"/>
      <point x="624" y="660"/>
      <point x="589" y="609"/>
      <point x="554" y="560" type="curve" smooth="yes"/>
      <point x="427" y="380" type="line"/>
      <point x="597" y="127" type="line" smooth="yes"/>
      <point x="631" y="77"/>
      <point x="668" y="45"/>
      <point x="740" y="30" type="curve"/>
      <point x="740" y="0" type="line"/>
      <point x="419" y="0" type="line"/>
      <point x="419" y="30" type="line"/>
      <point x="474" y="40"/>
      <point x="489" y="50"/>
      <point x="489" y="70" type="curve" smooth="yes"/>
      <point x="489" y="90"/>
      <point x="461" y="134"/>
      <point x="444" y="160" type="curve" smooth="yes"/>
      <point x="342" y="315" type="line"/>
      <point x="224" y="140" type="line" smooth="yes"/>
      <point x="204" y="110"/>
      <point x="194" y="100"/>
      <point x="194" y="70" type="curve" smooth="yes"/>
      <point x="194" y="50"/>
      <point x="219" y="40"/>
      <point x="274" y="30" type="curve"/>
      <point x="274" y="0" type="line"/>
      <point x="10" y="0" type="line"/>
      <point x="10" y="30" type="line"/>
      <point x="84" y="40"/>
      <point x="112" y="70"/>
      <point x="144" y="115" type="curve" smooth="yes"/>
      <point x="314" y="355" type="line"/>
      <point x="184" y="540" type="line" smooth="yes"/>
      <point x="121" y="630"/>
      <point x="104" y="650"/>
      <point x="14" y="670" type="curve"/>
      <point x="14" y="700" type="line"/>
      <point x="354" y="700" type="line"/>
      <point x="354" y="670" type="line"/>
      <point x="284" y="660"/>
      <point x="274" y="650"/>
      <point x="274" y="620" type="curve" smooth="yes"/>
      <point x="274" y="600"/>
      <point x="305" y="560"/>
      <point x="324" y="530" type="curve" smooth="yes"/>
      <point x="394" y="420" type="line"/>
      <point x="464" y="525" type="line" smooth="yes"/>
      <point x="494" y="570"/>
      <point x="514" y="600"/>
      <point x="514" y="620" type="curve" smooth="yes"/>
      <point x="514" y="640"/>
      <point x="504" y="660"/>
      <point x="439" y="670" type="curve"/>
      <point x="439" y="700" type="line"/>
      <point x="699" y="700" type="line"/>
    </contour>
  </outline>
</glyph>
<glyph name="Z" format="2">
  <advance width="634"/>
  <unicode hex="005A"/>
  <outline>
    <contour>
      <point x="40" y="0" type="line"/>
      <point x="40" y="43" type="line"/>
      <point x="460" y="640" type="line"/>
      <point x="239" y="640" type="line" smooth="yes"/>
      <point x="141" y="640"/>
      <point x="119" y="580"/>
      <point x="99" y="500" type="curve"/>
      <point x="60" y="500" type="line"/>
      <point x="60" y="700" type="line"/>
      <point x="620" y="700" type="line"/>
      <point x="620" y="660" type="line"/>
      <point x="185" y="57" type="line"/>
      <point x="420" y="57" type="line" smooth="yes"/>
      <point x="550" y="57"/>
      <point x="560" y="110"/>
      <point x="620" y="220" type="curve"/>
      <point x="660" y="220" type="line"/>
      <point x="619" y="0" type="line"/>
    </contour>
  </outline>
</glyph>
<glyph name="bracketleft" format="2">
  <advance width="375"/>
  <unicode hex="005B"/>
  <outline>
    <contour>
      <point x="224" y="683" type="curve" smooth="yes"/>
      <point x="224" y="7" type="line" smooth="yes"/>
      <point x="224" y="-53"/>
      <point x="243" y="-71"/>
      <point x="302" y="-71" type="curve" smooth="yes"/>
      <point x="359" y="-71" type="line"/>
      <point x="359" y="-110" type="line"/>
      <point x="190" y="-110" type="line" smooth="yes"/>
      <point x="160" y="-110"/>
      <point x="140" y="-90"/>
      <point x="140" y="-60" type="curve" smooth="yes"/>
      <point x="140" y="750" type="line" smooth="yes"/>
      <point x="140" y="780"/>
      <point x="160" y="800"/>
      <point x="190" y="800" type="curve" smooth="yes"/>
      <point x="359" y="800" type="line"/>
      <point x="359" y="761" type="line"/>
      <point x="302" y="761" type="line" smooth="yes"/>
      <point x="243" y="761"/>
      <point x="224" y="743"/>
    </contour>
  </outline>
</glyph>
<glyph name="g" format="2">
  <advance width="545"/>
  <unicode hex="0067"/>
  <outline>
    <contour>
      <point x="535" y="480" type="line"/>
      <point x="535" y="405" type="line"/>
      <point x="505" y="395" type="line"/>
      <point x="410" y="420" type="line"/>
      <point x="410" y="420" type="line"/>
      <point x="431" y="393"/>
      <point x="445" y="359"/>
      <point x="445" y="320" type="curve" smooth="yes"/>
      <point x="445" y="216"/>
      <point x="369" y="145"/>
      <point x="245" y="145" type="curve" smooth="yes"/>
      <point x="209" y="145"/>
      <point x="179" y="150"/>
      <point x="154" y="160" type="curve"/>
      <point x="141" y="143"/>
      <point x="135" y="131"/>
      <point x="135" y="120" type="curve" smooth="yes"/>
      <point x="135" y="100"/>
      <point x="165" y="65"/>
      <point x="265" y="65" type="curve" smooth="yes"/>
      <point x="425" y="65"/>
      <point x="505" y="10"/>
      <point x="505" y="-70" type="curve" smooth="yes"/>
      <point x="505" y="-210"/>
      <point x="355" y="-260"/>
      <point x="265" y="-260" type="curve" smooth="yes"/>
      <point x="121" y="-260"/>
      <point x="25" y="-233"/>
      <point x="25" y="-120" type="curve" smooth="yes"/>
      <point x="25" y="-86"/>
      <point x="100" y="-33"/>
      <point x="138" y="-9" type="curve"/>
      <point x="98" y="10"/>
      <point x="60" y="48"/>
      <point x="60" y="90" type="curve" smooth="yes"/>
      <point x="60" y="116"/>
      <point x="95" y="153"/>
      <point x="120" y="177" type="curve"/>
      <point x="66" y="213"/>
      <point x="45" y="273"/>
      <point x="45" y="330" type="curve" smooth="yes"/>
      <point x="45" y="429"/>
      <point x="116" y="500"/>
      <point x="245" y="500" type="curve" smooth="yes"/>
      <point x="286" y="500"/>
      <point x="331" y="485"/>
      <point x="368" y="459" type="curve"/>
    </contour>
    <contour>
      <point x="245" y="180" type="curve" smooth="yes"/>
      <point x="321" y="180"/>
      <point x="340" y="264"/>
      <point x="340" y="320" type="curve" smooth="yes"/>
      <point x="340" y="421"/>
      <point x="296" y="465"/>
      <point x="245" y="465" type="curve" smooth="yes"/>
      <point x="166" y="465"/>
      <point x="150" y="385"/>
      <point x="150" y="330" type="curve" smooth="yes"/>
      <point x="150" y="229"/>
      <point x="196" y="180"/>
    </contour>
    <contour>
      <point x="185" y="-20" type="curve"/>
      <point x="185" y="-20"/>
      <point x="110" y="-75"/>
      <point x="110" y="-110" type="curve" smooth="yes"/>
      <point x="110" y="-182"/>
      <point x="190" y="-220"/>
      <point x="285" y="-220" type="curve" smooth="yes"/>
      <point x="375" y="-220"/>
      <point x="410" y="-173"/>
      <point x="410" y="-120" type="curve" smooth="yes"/>
      <point x="410" y="-40"/>
      <point x="335" y="-20"/>
    </contour>
  </outline>
</glyph>
<glyph name="k" format="2">
  <advance width="555"/>
  <unicode hex="006B"/>
  <outline>
    <contour>
      <point x="260" y="30" type="curve"/>
      <point x="260" y="0" type="line"/>
      <point x="20" y="0" type="line"/>
      <point x="20" y="30" type="line"/>
      <point x="70" y="35"/>
      <point x="90" y="60"/>
      <point x="90" y="100" type="curve" smooth="yes"/>
      <point x="90" y="660" type="line"/>
      <point x="30" y="690" type="line"/>
      <point x="30" y="710" type="line"/>
      <point x="160" y="750" type="line"/>
      <point x="190" y="740" type="line"/>
      <point x="190" y="270" type="line"/>
      <point x="300" y="380"/>
      <point x="310" y="390"/>
      <point x="310" y="420" type="curve" smooth="yes"/>
      <point x="310" y="440"/>
      <point x="300" y="450"/>
      <point x="270" y="460" type="curve"/>
      <point x="270" y="480" type="line"/>
      <point x="500" y="480" type="line"/>
      <point x="500" y="460" type="line"/>
      <point x="440" y="440"/>
      <point x="411" y="421"/>
      <point x="270" y="280" type="curve"/>
      <point x="470" y="80"/>
      <point x="500" y="50"/>
      <point x="550" y="30" type="curve"/>
      <point x="550" y="0" type="line"/>
      <point x="420" y="0" type="line"/>
      <point x="190" y="230" type="line"/>
      <point x="190" y="100" type="line" smooth="yes"/>
      <point x="190" y="60"/>
      <point x="210" y="35"/>
    </contour>
  </outline>
</glyph>
<glyph name="l" format="2">
  <advance width="272"/>
  <unicode hex="006C"/>
  <outline>
    <contour>
      <point x="258" y="0" type="line"/>
      <point x="18" y="0" type="line"/>
      <point x="18" y="30" type="line"/>
      <point x="68" y="40"/>
      <point x="88" y="60"/>
      <point x="88" y="100" type="curve" smooth="yes"/>
      <point x="88" y="660" type="line"/>
      <point x="28" y="690" type="line"/>
      <point x="28" y="710" type="line"/>
      <point x="158" y="750" type="line"/>
      <point x="188" y="740" type="line"/>
      <point x="188" y="100" type="line" smooth="yes"/>
      <point x="188" y="60"/>
      <point x="208" y="40"/>
      <point x="258" y="30" type="curve"/>
    </contour>
  </outline>
</glyph>
<glyph name="o" format="2">
  <advance width="561"/>
  <unicode hex="006F"/>
  <anchor x="280" y="580" name="Anchor1"/>
  <outline>
    <contour>
      <point x="273" y="-15" type="curve" smooth="yes"/>
      <point x="158" y="-15"/>
      <point x="38" y="65"/>
      <point x="38" y="235" type="curve" smooth="yes"/>
      <point x="38" y="380"/>
      <point x="133" y="495"/>
      <point x="288" y="495" type="curve" smooth="yes"/>
      <point x="408" y="495"/>
      <point x="523" y="415"/>
      <point x="523" y="245" type="curve" smooth="yes"/>
      <point x="523" y="85"/>
      <point x="423" y="-15"/>
    </contour>
    <contour>
      <point x="283" y="25" type="curve" smooth="yes"/>
      <point x="393" y="25"/>
      <point x="413" y="140"/>
      <point x="413" y="230" type="curve" smooth="yes"/>
      <point x="413" y="390"/>
      <point x="348" y="455"/>
      <point x="278" y="455" type="curve" smooth="yes"/>
      <point x="173" y="455"/>
      <point x="148" y="335"/>
      <point x="148" y="250" type="curve" smooth="yes"/>
      <point x="148" y="85"/>
      <point x="213" y="25"/>
    </contour>
  </outline>
</glyph>
<glyph name="t" format="2">
  <advance width="330"/>
  <unicode hex="0074"/>
  <outline>
    <contour>
      <point x="190" y="590" type="line"/>
      <point x="190" y="480" type="line"/>
      <point x="320" y="480" type="line"/>
      <point x="320" y="440" type="line"/>
      <point x="190" y="440" type="line"/>
      <point x="190" y="153" type="line" smooth="yes"/>
      <point x="190" y="68"/>
      <point x="220" y="30"/>
      <point x="265" y="30" type="curve" smooth="yes"/>
      <point x="320" y="30" type="line"/>
      <point x="320" y="0" type="line"/>
      <point x="280" y="-15"/>
      <point x="250" y="-20"/>
      <point x="205" y="-20" type="curve" smooth="yes"/>
      <point x="140" y="-20"/>
      <point x="90" y="26"/>
      <point x="90" y="113" type="curve" smooth="yes"/>
      <point x="90" y="440" type="line"/>
      <point x="10" y="440" type="line"/>
      <point x="10" y="470" type="line"/>
      <point x="120" y="500"/>
      <point x="135" y="540"/>
      <point x="160" y="600" type="curve"/>
    </contour>
  </outline>
</glyph>
<glyph name="u" format="2">
  <advance width="565"/>
  <unicode hex="0075"/>
  <anchor x="270" y="580" name="Anchor1"/>
  <anchor x="270" y="580" name="Anchor-1"/>
  <outline>
    <contour>
      <point x="315" y="450" type="curve"/>
      <point x="315" y="480" type="line"/>
      <point x="485" y="480" type="line"/>
      <point x="485" y="70" type="line"/>
      <point x="545" y="40" type="line"/>
      <point x="545" y="20" type="line"/>
      <point x="420" y="-20" type="line"/>
      <point x="390" y="-10" type="line"/>
      <point x="390" y="60" type="line"/>
      <point x="355" y="10"/>
      <point x="295" y="-10"/>
      <point x="245" y="-10" type="curve" smooth="yes"/>
      <point x="145" y="-10"/>
      <point x="85" y="50"/>
      <point x="85" y="140" type="curve" smooth="yes"/>
      <point x="85" y="380" type="line" smooth="yes"/>
      <point x="85" y="420"/>
      <point x="65" y="440"/>
      <point x="15" y="450" type="curve"/>
      <point x="15" y="480" type="line"/>
      <point x="185" y="480" type="line"/>
      <point x="185" y="150" type="line" smooth="yes"/>
      <point x="185" y="85"/>
      <point x="220" y="50"/>
      <point x="285" y="50" type="curve" smooth="yes"/>
      <point x="340" y="50"/>
      <point x="385" y="85"/>
      <point x="385" y="150" type="curve" smooth="yes"/>
      <point x="385" y="380" type="line" smooth="yes"/>
      <point x="385" y="420"/>
      <point x="365" y="440"/>
    </contour>
  </outline>
</glyph>
<glyph name="v" format="2">
  <advance width="520"/>
  <unicode hex="0076"/>
  <outline>
    <contour>
      <point x="225" y="-20" type="line"/>
      <point x="55" y="395" type="line" smooth="yes"/>
      <point x="41" y="430"/>
      <point x="20" y="450"/>
      <point x="-10" y="455" type="curve"/>
      <point x="-10" y="480" type="line"/>
      <point x="230" y="480" type="line"/>
      <point x="230" y="455" type="line"/>
      <point x="200" y="450"/>
      <point x="170" y="430"/>
      <point x="170" y="410" type="curve" smooth="yes"/>
      <point x="170" y="380"/>
      <point x="180.682" y="360.268"/>
      <point x="200" y="310" type="curve" smooth="yes"/>
      <point x="293" y="68" type="line"/>
      <point x="274" y="68" type="line"/>
      <point x="372" y="310" type="line" smooth="yes"/>
      <point x="392.213" y="359.914"/>
      <point x="400" y="380"/>
      <point x="400" y="410" type="curve" smooth="yes"/>
      <point x="400" y="430"/>
      <point x="370" y="450"/>
      <point x="340" y="455" type="curve"/>
      <point x="340" y="480" type="line"/>
      <point x="530" y="480" type="line"/>
      <point x="530" y="455" type="line"/>
      <point x="500" y="450"/>
      <point x="474.579" y="430.177"/>
      <point x="460" y="395" type="curve" smooth="yes"/>
      <point x="288" y="-20" type="line"/>
    </contour>
  </outline>
</glyph>
<glyph name="w" format="2">
  <advance width="804"/>
  <unicode hex="0077"/>
  <outline>
    <contour>
      <point x="225" y="-20" type="line"/>
      <point x="55" y="395" type="line" smooth="yes"/>
      <point x="40.7106" y="429.883"/>
      <point x="20" y="450"/>
      <point x="-10" y="455" type="curve"/>
      <point x="-10" y="480" type="line"/>
      <point x="230" y="480" type="line"/>
      <point x="230" y="455" type="line"/>
      <point x="200" y="450"/>
      <point x="170" y="430"/>
      <point x="170" y="410" type="curve" smooth="yes"/>
      <point x="170" y="380"/>
      <point x="180.712" y="360.279"/>
      <point x="200" y="310" type="curve" smooth="yes"/>
      <point x="289" y="78" type="line"/>
      <point x="275" y="78" type="line"/>
      <point x="390" y="352" type="line"/>
      <point x="415.872" y="292.231" type="line"/>
      <point x="281" y="-20" type="line"/>
    </contour>
    <contour>
      <point x="509" y="-20" type="line"/>
      <point x="339" y="395" type="line" smooth="yes"/>
      <point x="324.711" y="429.883"/>
      <point x="304" y="450"/>
      <point x="274" y="455" type="curve"/>
      <point x="274" y="480" type="line"/>
      <point x="514" y="480" type="line"/>
      <point x="514" y="455" type="line"/>
      <point x="484" y="450"/>
      <point x="454" y="430"/>
      <point x="454" y="410" type="curve" smooth="yes"/>
      <point x="454" y="380"/>
      <point x="464.712" y="360.279"/>
      <point x="484" y="310" type="curve" smooth="yes"/>
      <point x="573" y="78" type="line"/>
      <point x="559" y="78" type="line"/>
      <point x="656" y="310" type="line" smooth="yes"/>
      <point x="676.773" y="359.684"/>
      <point x="684" y="380"/>
      <point x="684" y="410" type="curve" smooth="yes"/>
      <point x="684" y="430"/>
      <point x="654" y="450"/>
      <point x="624" y="455" type="curve"/>
      <point x="624" y="480" type="line"/>
      <point x="814" y="480" type="line"/>
      <point x="814" y="455" type="line"/>
      <point x="784" y="450"/>
      <point x="759.081" y="429.965"/>
      <point x="744" y="395" type="curve" smooth="yes"/>
      <point x="565" y="-20" type="line"/>
    </contour>
  </outline>
</glyph>
<glyph name="z" format="2">
  <advance width="515"/>
  <unicode hex="007A"/>
  <outline>
    <contour>
      <point x="30" y="0" type="line"/>
      <point x="30" y="30" type="line"/>
      <point x="352" y="465" type="line"/>
      <point x="367.006" y="440" type="line"/>
      <point x="219" y="440" type="line" smooth="yes"/>
      <point x="130" y="440"/>
      <point x="110" y="400"/>
      <point x="90" y="320" type="curve"/>
      <point x="50" y="320" type="line"/>
      <point x="50" y="496" type="line"/>
      <point x="79.4239" y="496" type="line"/>
      <point x="114.632" y="480" type="line"/>
      <point x="460" y="480" type="line"/>
      <point x="460" y="450" type="line"/>
      <point x="137" y="18" type="line"/>
      <point x="105.99" y="40" type="line"/>
      <point x="330" y="40" type="line" smooth="yes"/>
      <point x="380" y="40"/>
      <point x="410" y="60"/>
      <point x="440" y="170" type="curve"/>
      <point x="480" y="170" type="line"/>
      <point x="460" y="0" type="line"/>
    </contour>
  </outline>
</glyph>
<glyph name="braceright" format="2">
  <advance width="392"/>
  <unicode hex="007D"/>
  <outline>
    <contour>
      <point x="312" y="243" type="line"/>
      <point x="246" y="234"/>
      <point x="200" y="191"/>
      <point x="200" y="139" type="curve" smooth="yes"/>
      <point x="200" y="92"/>
      <point x="223" y="42"/>
      <point x="223" y="-11" type="curve" smooth="yes"/>
      <point x="223" y="-106"/>
      <point x="147" y="-185"/>
      <point x="40" y="-199" type="curve"/>
      <point x="40" y="-166" type="line"/>
      <point x="114" y="-150"/>
      <point x="146" y="-113"/>
      <point x="146" y="-70" type="curve" smooth="yes"/>
      <point x="146" y="-25"/>
      <point x="128" y="17"/>
      <point x="128" y="84" type="curve" smooth="yes"/>
      <point x="128" y="155"/>
      <point x="176" y="221"/>
      <point x="252" y="254" type="curve"/>
      <point x="176" y="287"/>
      <point x="128" y="353"/>
      <point x="128" y="424" type="curve" smooth="yes"/>
      <point x="128" y="491"/>
      <point x="146" y="533"/>
      <point x="146" y="578" type="curve" smooth="yes"/>
      <point x="146" y="621"/>
      <point x="114" y="658"/>
      <point x="40" y="674" type="curve"/>
      <point x="40" y="707" type="line"/>
      <point x="147" y="693"/>
      <point x="223" y="614"/>
      <point x="223" y="519" type="curve" smooth="yes"/>
      <point x="223" y="466"/>
      <point x="200" y="417"/>
      <point x="200" y="369" type="curve" smooth="yes"/>
      <point x="200" y="317"/>
      <point x="246" y="274"/>
      <point x="312" y="265" type="curve"/>
    </contour>
  </outline>
</glyph>
<glyph name="asciitilde" format="2">
  <advance width="469"/>
  <unicode hex="007E"/>
  <outline>
    <contour>
      <point x="461" y="405" type="curve"/>
      <point x="500" y="405" type="line"/>
      <point x="497" y="304.931"/>
      <point x="446" y="242"/>
      <point x="369" y="242" type="curve" smooth="yes"/>
      <point x="330" y="242"/>
      <point x="308" y="249"/>
      <point x="185" y="300" type="curve" smooth="yes"/>
      <point x="133" y="322"/>
      <point x="106" y="330"/>
      <point x="83" y="330" type="curve" smooth="yes"/>
      <point x="41.1396" y="330"/>
      <point x="15.8486" y="302.667"/>
      <point x="8" y="248" type="curve"/>
      <point x="-32" y="248" type="line"/>
      <point x="-29" y="297"/>
      <point x="-22" y="325"/>
      <point x="-5" y="351" type="curve" smooth="yes"/>
      <point x="18" y="389.182"/>
      <point x="56" y="411"/>
      <point x="95" y="411" type="curve" smooth="yes"/>
      <point x="122" y="411"/>
      <point x="143" y="406"/>
      <point x="185" y="391" type="curve" smooth="yes"/>
      <point x="209" y="382"/>
      <point x="251" y="366"/>
      <point x="282" y="352" type="curve" smooth="yes"/>
      <point x="337" y="327"/>
      <point x="362" y="321"/>
      <point x="386" y="321" type="curve" smooth="yes"/>
      <point x="428.732" y="321"/>
      <point x="455.768" y="352.146"/>
    </contour>
  </outline>
</glyph>
<glyph name="currency" format="2">
  <advance width="630"/>
  <unicode hex="00A4"/>
  <outline>
    <contour>
      <point x="184.334" y="325.669" type="curve" smooth="yes"/>
      <point x="184.334" y="243.002"/>
      <point x="252.001" y="175.335"/>
      <point x="334.668" y="175.335" type="curve" smooth="yes"/>
      <point x="416.668" y="175.335"/>
      <point x="484.334" y="242.669"/>
      <point x="484.334" y="325.669" type="curve" smooth="yes"/>
      <point x="484.334" y="407.669"/>
      <point x="416.668" y="475.335"/>
      <point x="334.668" y="475.335" type="curve" smooth="yes"/>
      <point x="252.001" y="475.335"/>
      <point x="184.334" y="407.669"/>
    </contour>
    <contour>
      <point x="95.333" y="132.333" type="line"/>
      <point x="159.001" y="195.335" type="line"/>
      <point x="126.668" y="242.002"/>
      <point x="115.668" y="275.335"/>
      <point x="115.668" y="325.335" type="curve" smooth="yes"/>
      <point x="115.668" y="374.668"/>
      <point x="126.668" y="408.001"/>
      <point x="159.001" y="456.001" type="curve"/>
      <point x="95.334" y="518.668" type="line"/>
      <point x="141.001" y="564.001" type="line"/>
      <point x="204.334" y="501.001" type="line"/>
      <point x="252.334" y="533.001"/>
      <point x="284.668" y="544.001"/>
      <point x="333.668" y="544.001" type="curve" smooth="yes"/>
      <point x="384.335" y="544.001"/>
      <point x="416.668" y="533.001"/>
      <point x="464.668" y="500.334" type="curve"/>
      <point x="527.668" y="564.001" type="line"/>
      <point x="572.668" y="518.668" type="line"/>
      <point x="509.668" y="455.334" type="line"/>
      <point x="542.001" y="408.334"/>
      <point x="553.001" y="374.334"/>
      <point x="553.001" y="324.668" type="curve" smooth="yes"/>
      <point x="553.001" y="275.334"/>
      <point x="542.001" y="242.001"/>
      <point x="509.668" y="195.334" type="curve"/>
      <point x="572.668" y="132.334" type="line"/>
      <point x="527.668" y="87.001" type="line"/>
      <point x="464.668" y="149.334" type="line"/>
      <point x="417.334" y="117.334"/>
      <point x="385.001" y="106.667"/>
      <point x="335.334" y="106.667" type="curve" smooth="yes"/>
      <point x="284.667" y="106.667"/>
      <point x="251" y="118.334"/>
      <point x="204.333" y="149.667" type="curve"/>
      <point x="141" y="87" type="line"/>
    </contour>
  </outline>
</glyph>
<glyph name="dieresis" format="2">
  <advance width="386"/>
  <unicode hex="00A8"/>
  <outline>
    <contour>
      <point x="98.5" y="691.3" type="curve" smooth="yes"/>
      <point x="130.399" y="691.3"/>
      <point x="156.8" y="664.899"/>
      <point x="156.8" y="633" type="curve" smooth="yes"/>
      <point x="156.8" y="601.101"/>
      <point x="130.399" y="574.7"/>
      <point x="98.5" y="574.7" type="curve" smooth="yes"/>
      <point x="66.5996" y="574.7"/>
      <point x="40.1992" y="601.101"/>
      <point x="40.1992" y="633" type="curve" smooth="yes"/>
      <point x="40.1992" y="664.899"/>
      <point x="66.5996" y="691.3"/>
    </contour>
    <contour>
      <point x="287.699" y="691.3" type="curve" smooth="yes"/>
      <point x="319.6" y="691.3"/>
      <point x="346" y="664.899"/>
      <point x="346" y="633" type="curve" smooth="yes"/>
      <point x="346" y="601.101"/>
      <point x="319.6" y="574.7"/>
      <point x="287.699" y="574.7" type="curve" smooth="yes"/>
      <point x="255.8" y="574.7"/>
      <point x="229.399" y="601.101"/>
      <point x="229.399" y="633" type="curve" smooth="yes"/>
      <point x="229.399" y="664.899"/>
      <point x="255.8" y="691.3"/>
    </contour>
  </outline>
</glyph>
<glyph name="copyright" format="2">
  <advance width="760"/>
  <unicode hex="00A9"/>
  <outline>
    <contour>
      <point x="393.52" y="103.55" type="curve" smooth="yes"/>
      <point x="380.29" y="103.55" type="line" smooth="yes"/>
      <point x="274.758" y="103.55"/>
      <point x="164.2" y="175.846"/>
      <point x="164.2" y="329.09" type="curve" smooth="yes"/>
      <point x="164.2" y="460.183"/>
      <point x="251.53" y="563.45"/>
      <point x="393.52" y="563.45" type="curve" smooth="yes"/>
      <point x="447.992" y="563.45"/>
      <point x="494.092" y="545.994"/>
      <point x="532.12" y="516.83" type="curve"/>
      <point x="532.12" y="424.22" type="line"/>
      <point x="504.4" y="424.22" type="line"/>
      <point x="488.372" y="504.206"/>
      <point x="441.581" y="538.25"/>
      <point x="395.41" y="538.25" type="curve" smooth="yes"/>
      <point x="384.7" y="538.25" type="line" smooth="yes"/>
      <point x="268.018" y="538.25"/>
      <point x="239.8" y="423.943"/>
      <point x="239.8" y="342.95" type="curve" smooth="yes"/>
      <point x="239.8" y="186.044"/>
      <point x="311.803" y="128.75"/>
      <point x="389.11" y="128.75" type="curve" smooth="yes"/>
      <point x="395.41" y="128.75" type="line" smooth="yes"/>
      <point x="441.581" y="128.75"/>
      <point x="488.372" y="162.794"/>
      <point x="504.4" y="242.78" type="curve"/>
      <point x="532.12" y="242.78" type="line"/>
      <point x="532.12" y="150.17" type="line"/>
      <point x="494.092" y="121.006"/>
      <point x="447.992" y="103.55"/>
    </contour>
    <contour>
      <point x="695" y="336" type="curve" smooth="yes"/>
      <point x="695" y="510"/>
      <point x="554" y="651"/>
      <point x="380" y="651" type="curve" smooth="yes"/>
      <point x="206" y="651"/>
      <point x="65" y="510"/>
      <point x="65" y="336" type="curve" smooth="yes"/>
      <point x="65" y="162"/>
      <point x="206" y="21"/>
      <point x="380" y="21" type="curve" smooth="yes"/>
      <point x="554" y="21"/>
      <point x="695" y="162"/>
    </contour>
    <contour>
      <point x="726" y="336" type="curve" smooth="yes"/>
      <point x="726" y="145"/>
      <point x="571" y="-10"/>
      <point x="380" y="-10" type="curve" smooth="yes"/>
      <point x="189" y="-10"/>
      <point x="34" y="145"/>
      <point x="34" y="336" type="curve" smooth="yes"/>
      <point x="34" y="527"/>
      <point x="189" y="682"/>
      <point x="380" y="682" type="curve" smooth="yes"/>
      <point x="571" y="682"/>
      <point x="726" y="527"/>
    </contour>
  </outline>
</glyph>
<glyph name="ordfeminine" format="2">
  <advance width="313"/>
  <unicode hex="00AA"/>
  <outline>
    <contour>
      <point x="243" y="391" type="curve" smooth="yes"/>
      <point x="213" y="391"/>
      <point x="189" y="403"/>
      <point x="183" y="433" type="curve"/>
      <point x="165" y="403"/>
      <point x="141" y="388"/>
      <point x="105" y="388" type="curve" smooth="yes"/>
      <point x="57" y="388"/>
      <point x="21" y="424"/>
      <point x="21" y="472" type="curve" smooth="yes"/>
      <point x="21" y="532"/>
      <point x="93" y="550"/>
      <point x="183" y="580" type="curve"/>
      <point x="183" y="637" type="line" smooth="yes"/>
      <point x="183" y="667"/>
      <point x="162" y="679"/>
      <point x="138" y="679" type="curve" smooth="yes"/>
      <point x="113.751" y="679"/>
      <point x="91.7295" y="669.202"/>
      <point x="91.7295" y="649.6" type="curve" smooth="yes"/>
      <point x="91.7295" y="644.8"/>
      <point x="93.124" y="639.751"/>
      <point x="96" y="634" type="curve" smooth="yes"/>
      <point x="105" y="616" type="line"/>
      <point x="93" y="604"/>
      <point x="75" y="598"/>
      <point x="63" y="598" type="curve" smooth="yes"/>
      <point x="45" y="598"/>
      <point x="39" y="616"/>
      <point x="39" y="634" type="curve" smooth="yes"/>
      <point x="39" y="658"/>
      <point x="69" y="700"/>
      <point x="153" y="700" type="curve" smooth="yes"/>
      <point x="225" y="700"/>
      <point x="243" y="658"/>
      <point x="243" y="622" type="curve" smooth="yes"/>
      <point x="243" y="454" type="line" smooth="yes"/>
      <point x="243" y="436"/>
      <point x="255" y="427"/>
      <point x="264" y="427" type="curve" smooth="yes"/>
      <point x="273" y="427"/>
      <point x="285" y="430"/>
      <point x="291" y="436" type="curve"/>
      <point x="303" y="424" type="line"/>
      <point x="291" y="406"/>
      <point x="273" y="391"/>
    </contour>
    <contour>
      <point x="183" y="490" type="curve" smooth="yes"/>
      <point x="183" y="559" type="line"/>
      <point x="105" y="529"/>
      <point x="84" y="514"/>
      <point x="84" y="478" type="curve" smooth="yes"/>
      <point x="84" y="454"/>
      <point x="99" y="430"/>
      <point x="135" y="430" type="curve" smooth="yes"/>
      <point x="168" y="430"/>
      <point x="183" y="454"/>
    </contour>
  </outline>
</glyph>
<glyph name="logicalnot" format="2">
  <advance width="667"/>
  <unicode hex="00AC"/>
  <outline>
    <contour>
      <point x="66" y="480" type="line"/>
      <point x="601" y="480" type="line"/>
      <point x="601" y="179" type="line"/>
      <point x="531" y="179" type="line"/>
      <point x="531" y="410" type="line"/>
      <point x="66" y="410" type="line"/>
    </contour>
  </outline>
</glyph>
<glyph name="registered" format="2">
  <advance width="760"/>
  <unicode hex="00AE"/>
  <outline>
    <contour>
      <point x="695" y="336" type="curve" smooth="yes"/>
      <point x="695" y="510"/>
      <point x="554" y="651"/>
      <point x="380" y="651" type="curve" smooth="yes"/>
      <point x="206" y="651"/>
      <point x="65" y="510"/>
      <point x="65" y="336" type="curve" smooth="yes"/>
      <point x="65" y="162"/>
      <point x="206" y="21"/>
      <point x="380" y="21" type="curve" smooth="yes"/>
      <point x="554" y="21"/>
      <point x="695" y="162"/>
    </contour>
    <contour>
      <point x="726" y="336" type="curve" smooth="yes"/>
      <point x="726" y="145"/>
      <point x="571" y="-10"/>
      <point x="380" y="-10" type="curve" smooth="yes"/>
      <point x="189" y="-10"/>
      <point x="34" y="145"/>
      <point x="34" y="336" type="curve" smooth="yes"/>
      <point x="34" y="527"/>
      <point x="189" y="682"/>
      <point x="380" y="682" type="curve" smooth="yes"/>
      <point x="571" y="682"/>
      <point x="726" y="527"/>
    </contour>
    <contour>
      <point x="306.15" y="309.475" type="line"/>
      <point x="306.15" y="193.975" type="line" smooth="yes"/>
      <point x="306.15" y="182.425"/>
      <point x="311.925" y="173.763"/>
      <point x="323.475" y="170.875" type="curve" smooth="yes"/>
      <point x="369.675" y="159.325" type="line"/>
      <point x="369.675" y="142" type="line"/>
      <point x="179.1" y="142" type="line"/>
      <point x="179.1" y="159.325" type="line"/>
      <point x="225.3" y="170.875" type="line" smooth="yes"/>
      <point x="236.85" y="173.763"/>
      <point x="242.625" y="182.425"/>
      <point x="242.625" y="193.975" type="curve" smooth="yes"/>
      <point x="242.625" y="494.275" type="line" smooth="yes"/>
      <point x="242.625" y="505.825"/>
      <point x="236.85" y="514.487"/>
      <point x="225.3" y="517.375" type="curve" smooth="yes"/>
      <point x="179.1" y="528.925" type="line"/>
      <point x="179.1" y="546.25" type="line"/>
      <point x="375.45" y="546.25" type="line" smooth="yes"/>
      <point x="485.175" y="546.25"/>
      <point x="519.825" y="500.05"/>
      <point x="519.825" y="436.525" type="curve" smooth="yes"/>
      <point x="519.825" y="375.429"/>
      <point x="481.578" y="329.63"/>
      <point x="420.647" y="314.694" type="curve"/>
      <point x="529.065" y="192.82" type="line"/>
      <point x="554.852" y="174.119"/>
      <point x="575.731" y="159.325"/>
      <point x="601.253" y="159.325" type="curve"/>
      <point x="601.253" y="142" type="line"/>
      <point x="490.624" y="142" type="line" smooth="yes"/>
      <point x="482.881" y="142"/>
      <point x="465.887" y="158.568"/>
      <point x="450.449" y="175.096" type="curve" smooth="yes"/>
      <point x="331.554" y="309.475" type="line"/>
    </contour>
    <contour>
      <point x="340.8" y="336.617" type="line"/>
      <point x="362.168" y="336.617" type="line" smooth="yes"/>
      <point x="426.848" y="336.617"/>
      <point x="450.525" y="384.707"/>
      <point x="450.525" y="436.525" type="curve" smooth="yes"/>
      <point x="450.525" y="489.077"/>
      <point x="421.65" y="523.15"/>
      <point x="358.125" y="523.15" type="curve" smooth="yes"/>
      <point x="329.25" y="523.15" type="line" smooth="yes"/>
      <point x="317.7" y="523.15"/>
      <point x="306.15" y="517.375"/>
      <point x="306.15" y="500.05" type="curve" smooth="yes"/>
      <point x="306.15" y="336.617" type="line"/>
    </contour>
  </outline>
</glyph>
<glyph name="plusminus" format="2">
  <advance width="667"/>
  <unicode hex="00B1"/>
  <outline>
    <contour>
      <point x="69" y="469" type="line"/>
      <point x="298" y="469" type="line"/>
      <point x="298" y="698" type="line"/>
      <point x="368" y="698" type="line"/>
      <point x="368" y="469" type="line"/>
      <point x="597" y="469" type="line"/>
      <point x="597" y="399" type="line"/>
      <point x="368" y="399" type="line"/>
      <point x="368" y="170" type="line"/>
      <point x="298" y="170" type="line"/>
      <point x="298" y="399" type="line"/>
      <point x="69" y="399" type="line"/>
    </contour>
    <contour>
      <point x="69" y="0" type="line"/>
      <point x="69" y="70" type="line"/>
      <point x="597" y="70" type="line"/>
      <point x="597" y="0" type="line"/>
    </contour>
  </outline>
</glyph>
<glyph name="uni00B3" format="2">
  <advance width="345"/>
  <unicode hex="00B3"/>
  <outline>
    <contour>
      <point x="118.875" y="484.95" type="curve"/>
      <point x="110.074" y="503.1" type="line"/>
      <point x="182.521" y="541.6"/>
      <point x="217.875" y="560.85"/>
      <point x="217.875" y="602.1" type="curve" smooth="yes"/>
      <point x="217.875" y="628.314"/>
      <point x="195.186" y="649.4"/>
      <point x="164.524" y="649.4" type="curve" smooth="yes"/>
      <point x="123.813" y="649.4"/>
      <point x="95.4375" y="630.919"/>
      <point x="65.5244" y="587.25" type="curve"/>
      <point x="50.125" y="599.35" type="line"/>
      <point x="85.3242" y="664.8"/>
      <point x="124.673" y="689"/>
      <point x="180.475" y="689" type="curve" smooth="yes"/>
      <point x="231.653" y="689"/>
      <point x="278.375" y="659.332"/>
      <point x="278.375" y="616.95" type="curve" smooth="yes"/>
      <point x="278.375" y="583.4"/>
      <point x="256.841" y="561.4"/>
      <point x="201.375" y="536.1" type="curve"/>
      <point x="202.475" y="535" type="line"/>
      <point x="264.074" y="535"/>
      <point x="304.774" y="498.465"/>
      <point x="304.774" y="442.05" type="curve" smooth="yes"/>
      <point x="304.774" y="353.528"/>
      <point x="231.213" y="295.75"/>
      <point x="144.175" y="295.75" type="curve" smooth="yes"/>
      <point x="105.603" y="295.75"/>
      <point x="63.7598" y="305.65"/>
      <point x="40.2246" y="320.5" type="curve"/>
      <point x="51.2246" y="336.45" type="line"/>
      <point x="79.7705" y="323.8"/>
      <point x="99.3965" y="319.4"/>
      <point x="124.375" y="319.4" type="curve" smooth="yes"/>
      <point x="190.089" y="319.4"/>
      <point x="244.274" y="355.968"/>
      <point x="244.274" y="429.4" type="curve" smooth="yes"/>
      <point x="244.274" y="473.945"/>
      <point x="214.384" y="505.85"/>
      <point x="175.524" y="505.85" type="curve" smooth="yes"/>
      <point x="158.475" y="505.85"/>
      <point x="139.225" y="498.7"/>
    </contour>
  </outline>
</glyph>
<glyph name="acute" format="2">
  <advance width="290"/>
  <unicode hex="00B4"/>
  <outline>
    <contour>
      <point x="230" y="750" type="line"/>
      <point x="90" y="580" type="line"/>
      <point x="60" y="580" type="line"/>
      <point x="110" y="750" type="line"/>
    </contour>
  </outline>
</glyph>
<glyph name="mu" format="2">
  <advance width="630"/>
  <unicode hex="00B5"/>
  <outline>
    <contour>
      <point x="72" y="480" type="line"/>
      <point x="172" y="480" type="line"/>
      <point x="172" y="175" type="line" smooth="yes"/>
      <point x="172" y="87.6699"/>
      <point x="196.893" y="52"/>
      <point x="252" y="52" type="curve" smooth="yes"/>
      <point x="296.555" y="52"/>
      <point x="342.962" y="72.0742"/>
      <point x="384" y="120" type="curve"/>
      <point x="384" y="480" type="line"/>
      <point x="484" y="480" type="line"/>
      <point x="484" y="101" type="line" smooth="yes"/>
      <point x="484" y="62.6602"/>
      <point x="501.239" y="45"/>
      <point x="520" y="45" type="curve" smooth="yes"/>
      <point x="543.45" y="45"/>
      <point x="557.965" y="67.4004"/>
      <point x="565" y="110" type="curve"/>
      <point x="590" y="110" type="line"/>
      <point x="587.655" y="25.8652"/>
      <point x="532.28" y="-15"/>
      <point x="476" y="-15" type="curve" smooth="yes"/>
      <point x="420.893" y="-15"/>
      <point x="395.725" y="11.3848"/>
      <point x="384" y="87" type="curve"/>
      <point x="319.513" y="16.71"/>
      <point x="269.143" y="-15"/>
      <point x="207" y="-15" type="curve" smooth="yes"/>
      <point x="167.135" y="-15"/>
      <point x="141.277" y="0.985352"/>
      <point x="119" y="34" type="curve"/>
      <point x="116" y="34" type="line"/>
      <point x="116" y="-84.2148"/>
      <point x="144" y="-113.555"/>
      <point x="144" y="-170" type="curve" smooth="yes"/>
      <point x="144" y="-203.015"/>
      <point x="120.484" y="-230"/>
      <point x="90" y="-230" type="curve" smooth="yes"/>
      <point x="59.5146" y="-230"/>
      <point x="40" y="-205.145"/>
      <point x="40" y="-170" type="curve" smooth="yes"/>
      <point x="40" y="-111.425"/>
      <point x="72" y="-90.5254"/>
      <point x="72" y="59.6396" type="curve" smooth="yes"/>
    </contour>
  </outline>
</glyph>
<glyph name="uni00B9" format="2">
  <advance width="259"/>
  <unicode hex="00B9"/>
  <outline>
    <contour>
      <point x="218.875" y="317.5" type="line"/>
      <point x="218.875" y="301" type="line"/>
      <point x="40.125" y="301" type="line"/>
      <point x="40.125" y="317.5" type="line"/>
      <point x="84.125" y="328.5" type="line" smooth="yes"/>
      <point x="95.125" y="331.25"/>
      <point x="100.625" y="339.5"/>
      <point x="100.625" y="350.5" type="curve" smooth="yes"/>
      <point x="100.625" y="356" type="line"/>
      <point x="100.625" y="593.05" type="line" smooth="yes"/>
      <point x="100.625" y="622.75"/>
      <point x="89.0752" y="638.15"/>
      <point x="57.1748" y="638.15" type="curve" smooth="yes"/>
      <point x="47.8252" y="638.15" type="line"/>
      <point x="47.8252" y="657.95" type="line"/>
      <point x="88.0879" y="657.95"/>
      <point x="111.338" y="665.1"/>
      <point x="139.125" y="686" type="curve"/>
      <point x="158.375" y="686" type="line"/>
      <point x="158.375" y="356" type="line"/>
      <point x="158.375" y="350.5" type="line" smooth="yes"/>
      <point x="158.375" y="339.5"/>
      <point x="163.875" y="331.25"/>
      <point x="174.875" y="328.5" type="curve" smooth="yes"/>
    </contour>
  </outline>
</glyph>
<glyph name="onequarter" format="2">
  <advance width="841"/>
  <unicode hex="00BC"/>
  <outline>
    <contour>
      <point x="248.45" y="318.5" type="line"/>
      <point x="248.45" y="302" type="line"/>
      <point x="69.7002" y="302" type="line"/>
      <point x="69.7002" y="318.5" type="line"/>
      <point x="113.7" y="329.5" type="line" smooth="yes"/>
      <point x="124.7" y="332.25"/>
      <point x="130.2" y="340.5"/>
      <point x="130.2" y="351.5" type="curve" smooth="yes"/>
      <point x="130.2" y="357" type="line"/>
      <point x="130.2" y="594.05" type="line" smooth="yes"/>
      <point x="130.2" y="623.75"/>
      <point x="118.65" y="639.15"/>
      <point x="86.75" y="639.15" type="curve" smooth="yes"/>
      <point x="77.4004" y="639.15" type="line"/>
      <point x="77.4004" y="658.95" type="line"/>
      <point x="117.663" y="658.95"/>
      <point x="140.913" y="666.1"/>
      <point x="168.7" y="687" type="curve"/>
      <point x="187.95" y="687" type="line"/>
      <point x="187.95" y="357" type="line"/>
      <point x="187.95" y="351.5" type="line" smooth="yes"/>
      <point x="187.95" y="340.5"/>
      <point x="193.45" y="332.25"/>
      <point x="204.45" y="329.5" type="curve" smooth="yes"/>
    </contour>
    <contour>
      <point x="654.275" y="129.8" type="line"/>
      <point x="654.275" y="337.15" type="line"/>
      <point x="653.175" y="337.15" type="line"/>
      <point x="526.125" y="129.8" type="line"/>
    </contour>
    <contour>
      <point x="714.775" y="102.85" type="line"/>
      <point x="714.775" y="63.25" type="line" smooth="yes"/>
      <point x="714.775" y="31.3496"/>
      <point x="728.525" y="19.7998"/>
      <point x="763.175" y="19.7998" type="curve"/>
      <point x="763.175" y="0" type="line"/>
      <point x="604.775" y="0" type="line"/>
      <point x="604.775" y="19.7998" type="line"/>
      <point x="642.175" y="19.7998"/>
      <point x="654.275" y="33"/>
      <point x="654.275" y="64.3496" type="curve" smooth="yes"/>
      <point x="654.275" y="102.85" type="line"/>
      <point x="503.575" y="102.85" type="line"/>
      <point x="503.575" y="134.75" type="line"/>
      <point x="661.976" y="385" type="line"/>
      <point x="714.775" y="385" type="line"/>
      <point x="714.775" y="129.8" type="line"/>
      <point x="736.775" y="129.8"/>
      <point x="744.476" y="138.05"/>
      <point x="752.726" y="165" type="curve"/>
      <point x="771.425" y="165" type="line"/>
      <point x="763.175" y="102.85" type="line"/>
    </contour>
    <contour>
      <point x="211.575" y="-22" type="line"/>
      <point x="160.575" y="-22" type="line"/>
      <point x="621.575" y="706" type="line"/>
      <point x="672.575" y="706" type="line"/>
    </contour>
  </outline>
</glyph>
<glyph name="onehalf" format="2">
  <advance width="882"/>
  <unicode hex="00BD"/>
  <outline>
    <contour>
      <point x="248.875" y="318.5" type="line"/>
      <point x="248.875" y="302" type="line"/>
      <point x="70.125" y="302" type="line"/>
      <point x="70.125" y="318.5" type="line"/>
      <point x="114.125" y="329.5" type="line" smooth="yes"/>
      <point x="125.125" y="332.25"/>
      <point x="130.625" y="340.5"/>
      <point x="130.625" y="351.5" type="curve" smooth="yes"/>
      <point x="130.625" y="357" type="line"/>
      <point x="130.625" y="594.05" type="line" smooth="yes"/>
      <point x="130.625" y="623.75"/>
      <point x="119.075" y="639.15"/>
      <point x="87.1748" y="639.15" type="curve" smooth="yes"/>
      <point x="77.8252" y="639.15" type="line"/>
      <point x="77.8252" y="658.95" type="line"/>
      <point x="118.088" y="658.95"/>
      <point x="141.338" y="666.1"/>
      <point x="169.125" y="687" type="curve"/>
      <point x="188.375" y="687" type="line"/>
      <point x="188.375" y="357" type="line"/>
      <point x="188.375" y="351.5" type="line" smooth="yes"/>
      <point x="188.375" y="340.5"/>
      <point x="193.875" y="332.25"/>
      <point x="204.875" y="329.5" type="curve" smooth="yes"/>
    </contour>
    <contour>
      <point x="812" y="90.75" type="line"/>
      <point x="785.05" y="0" type="line"/>
      <point x="550.75" y="0" type="line"/>
      <point x="550.75" y="19.7998" type="line"/>
      <point x="658.065" y="140.952"/>
      <point x="743.8" y="199.439"/>
      <point x="743.8" y="272.25" type="curve" smooth="yes"/>
      <point x="743.8" y="312.4"/>
      <point x="722.548" y="345.4"/>
      <point x="668.45" y="345.4" type="curve" smooth="yes"/>
      <point x="629.95" y="345.4"/>
      <point x="595.85" y="315.15"/>
      <point x="573.3" y="261.8" type="curve"/>
      <point x="552.95" y="270.05" type="line"/>
      <point x="579.35" y="343.75"/>
      <point x="625.55" y="385"/>
      <point x="682.2" y="385" type="curve" smooth="yes"/>
      <point x="763.323" y="385"/>
      <point x="804.3" y="339.35"/>
      <point x="804.3" y="282.7" type="curve" smooth="yes"/>
      <point x="804.3" y="183.721"/>
      <point x="690.907" y="150.728"/>
      <point x="601.9" y="44.5498" type="curve"/>
      <point x="728.4" y="44.5498" type="line" smooth="yes"/>
      <point x="763.6" y="44.5498"/>
      <point x="777.35" y="54.4502"/>
      <point x="792.75" y="90.75" type="curve"/>
    </contour>
    <contour>
      <point x="212" y="-22" type="line"/>
      <point x="161" y="-22" type="line"/>
      <point x="622" y="706" type="line"/>
      <point x="673" y="706" type="line"/>
    </contour>
  </outline>
</glyph>
<glyph name="threequarters" format="2">
  <advance width="871"/>
  <unicode hex="00BE"/>
  <outline>
    <contour>
      <point x="683.851" y="129.8" type="line"/>
      <point x="683.851" y="337.15" type="line"/>
      <point x="682.75" y="337.15" type="line"/>
      <point x="555.7" y="129.8" type="line"/>
    </contour>
    <contour>
      <point x="744.351" y="102.85" type="line"/>
      <point x="744.351" y="63.25" type="line" smooth="yes"/>
      <point x="744.351" y="31.3496"/>
      <point x="758.101" y="19.7998"/>
      <point x="792.75" y="19.7998" type="curve"/>
      <point x="792.75" y="0" type="line"/>
      <point x="634.351" y="0" type="line"/>
      <point x="634.351" y="19.7998" type="line"/>
      <point x="671.75" y="19.7998"/>
      <point x="683.851" y="33"/>
      <point x="683.851" y="64.3496" type="curve" smooth="yes"/>
      <point x="683.851" y="102.85" type="line"/>
      <point x="533.15" y="102.85" type="line"/>
      <point x="533.15" y="134.75" type="line"/>
      <point x="691.55" y="385" type="line"/>
      <point x="744.351" y="385" type="line"/>
      <point x="744.351" y="129.8" type="line"/>
      <point x="766.351" y="129.8"/>
      <point x="774.05" y="138.05"/>
      <point x="782.3" y="165" type="curve"/>
      <point x="801" y="165" type="line"/>
      <point x="792.75" y="102.85" type="line"/>
    </contour>
    <contour>
      <point x="148.449" y="484.95" type="curve"/>
      <point x="139.649" y="503.1" type="line"/>
      <point x="212.096" y="541.6"/>
      <point x="247.449" y="560.85"/>
      <point x="247.449" y="602.1" type="curve" smooth="yes"/>
      <point x="247.449" y="628.314"/>
      <point x="224.761" y="649.4"/>
      <point x="194.1" y="649.4" type="curve" smooth="yes"/>
      <point x="153.389" y="649.4"/>
      <point x="125.013" y="630.919"/>
      <point x="95.0996" y="587.25" type="curve"/>
      <point x="79.6992" y="599.35" type="line"/>
      <point x="114.899" y="664.8"/>
      <point x="154.247" y="689"/>
      <point x="210.05" y="689" type="curve" smooth="yes"/>
      <point x="261.229" y="689"/>
      <point x="307.949" y="659.332"/>
      <point x="307.949" y="616.95" type="curve" smooth="yes"/>
      <point x="307.949" y="583.4"/>
      <point x="286.416" y="561.4"/>
      <point x="230.949" y="536.1" type="curve"/>
      <point x="232.05" y="535" type="line"/>
      <point x="293.649" y="535"/>
      <point x="334.35" y="498.465"/>
      <point x="334.35" y="442.05" type="curve" smooth="yes"/>
      <point x="334.35" y="353.528"/>
      <point x="260.788" y="295.75"/>
      <point x="173.75" y="295.75" type="curve" smooth="yes"/>
      <point x="135.177" y="295.75"/>
      <point x="93.335" y="305.65"/>
      <point x="69.7998" y="320.5" type="curve"/>
      <point x="80.7998" y="336.45" type="line"/>
      <point x="109.346" y="323.8"/>
      <point x="128.972" y="319.4"/>
      <point x="153.949" y="319.4" type="curve" smooth="yes"/>
      <point x="219.664" y="319.4"/>
      <point x="273.85" y="355.968"/>
      <point x="273.85" y="429.4" type="curve" smooth="yes"/>
      <point x="273.85" y="473.945"/>
      <point x="243.958" y="505.85"/>
      <point x="205.1" y="505.85" type="curve" smooth="yes"/>
      <point x="188.05" y="505.85"/>
      <point x="168.8" y="498.7"/>
    </contour>
    <contour>
      <point x="241.575" y="-22" type="line"/>
      <point x="190.575" y="-22" type="line"/>
      <point x="651.575" y="706" type="line"/>
      <point x="702.575" y="706" type="line"/>
    </contour>
  </outline>
</glyph>
<glyph name="Atilde" format="2">
  <advance width="780"/>
  <unicode hex="00C3"/>
  <outline>
    <contour>
      <point x="545" y="100" type="curve" smooth="yes"/>
      <point x="475" y="290" type="line"/>
      <point x="235" y="290" type="line"/>
      <point x="167" y="100" type="line" smooth="yes"/>
      <point x="160" y="80"/>
      <point x="175" y="56"/>
      <point x="195" y="50" type="curve" smooth="yes"/>
      <point x="260" y="30" type="line"/>
      <point x="260" y="0" type="line"/>
      <point x="0" y="0" type="line"/>
      <point x="0" y="30" type="line"/>
      <point x="70" y="50" type="line" smooth="yes"/>
      <point x="85" y="54"/>
      <point x="94" y="70"/>
      <point x="102" y="90" type="curve" smooth="yes"/>
      <point x="340" y="700" type="line"/>
      <point x="435" y="700" type="line"/>
      <point x="678" y="90" type="line" smooth="yes"/>
      <point x="686" y="70"/>
      <point x="690" y="56"/>
      <point x="710" y="50" type="curve" smooth="yes"/>
      <point x="780" y="30" type="line"/>
      <point x="780" y="0" type="line"/>
      <point x="455" y="0" type="line"/>
      <point x="455" y="30" type="line"/>
      <point x="520" y="50" type="line" smooth="yes"/>
      <point x="540" y="56"/>
      <point x="552" y="80"/>
    </contour>
    <contour>
      <point x="355" y="620" type="line"/>
      <point x="250" y="335" type="line"/>
      <point x="460" y="335" type="line"/>
    </contour>
    <contour>
      <point x="246.5" y="777" type="curve"/>
      <point x="221.5" y="777" type="line"/>
      <point x="223.718" y="859"/>
      <point x="260.305" y="904"/>
      <point x="323.5" y="904" type="curve" smooth="yes"/>
      <point x="358.982" y="904"/>
      <point x="392.245" y="883.112"/>
      <point x="421.5" y="862.992" type="curve" smooth="yes"/>
      <point x="443.832" y="847.633"/>
      <point x="464.466" y="835"/>
      <point x="481.5" y="835" type="curve" smooth="yes"/>
      <point x="507.5" y="835"/>
      <point x="523.5" y="859"/>
      <point x="528.5" y="904" type="curve"/>
      <point x="553.5" y="904" type="line"/>
      <point x="553.5" y="829.24"/>
      <point x="515.559" y="775"/>
      <point x="449.5" y="775" type="curve" smooth="yes"/>
      <point x="415.061" y="775"/>
      <point x="382.919" y="795.443"/>
      <point x="356.5" y="813.939" type="curve" smooth="yes"/>
      <point x="332.804" y="830.529"/>
      <point x="310.875" y="844"/>
      <point x="291.5" y="844" type="curve" smooth="yes"/>
      <point x="264.5" y="844"/>
      <point x="250.5" y="815"/>
    </contour>
  </outline>
</glyph>
<glyph name="Ograve" format="2">
  <advance width="787"/>
  <unicode hex="00D2"/>
  <outline>
    <contour>
      <point x="383" y="-15" type="curve" smooth="yes"/>
      <point x="215.488" y="-15"/>
      <point x="40" y="99.7559"/>
      <point x="40" y="343" type="curve" smooth="yes"/>
      <point x="40" y="551.084"/>
      <point x="178.619" y="715"/>
      <point x="404" y="715" type="curve" smooth="yes"/>
      <point x="578.491" y="715"/>
      <point x="747" y="600.244"/>
      <point x="747" y="357" type="curve" smooth="yes"/>
      <point x="747" y="127.322"/>
      <point x="601.4" y="-15"/>
    </contour>
    <contour>
      <point x="397" y="25" type="curve" smooth="yes"/>
      <point x="591.895" y="25"/>
      <point x="627" y="199.18"/>
      <point x="627" y="335" type="curve" smooth="yes"/>
      <point x="627" y="576.824"/>
      <point x="512.711" y="675"/>
      <point x="390" y="675" type="curve" smooth="yes"/>
      <point x="204.79" y="675"/>
      <point x="160" y="493.562"/>
      <point x="160" y="365" type="curve" smooth="yes"/>
      <point x="160" y="115.942"/>
      <point x="274.289" y="25"/>
    </contour>
    <contour>
      <point x="240" y="960" type="line"/>
      <point x="360" y="960" type="line"/>
      <point x="410" y="790" type="line"/>
      <point x="380" y="790" type="line"/>
    </contour>
  </outline>
</glyph>
<glyph name="Otilde" format="2">
  <advance width="787"/>
  <unicode hex="00D5"/>
  <outline>
    <contour>
      <point x="383" y="-15" type="curve" smooth="yes"/>
      <point x="215.488" y="-15"/>
      <point x="40" y="99.7559"/>
      <point x="40" y="343" type="curve" smooth="yes"/>
      <point x="40" y="551.084"/>
      <point x="178.619" y="715"/>
      <point x="404" y="715" type="curve" smooth="yes"/>
      <point x="578.491" y="715"/>
      <point x="747" y="600.244"/>
      <point x="747" y="357" type="curve" smooth="yes"/>
      <point x="747" y="127.322"/>
      <point x="601.4" y="-15"/>
    </contour>
    <contour>
      <point x="397" y="25" type="curve" smooth="yes"/>
      <point x="591.895" y="25"/>
      <point x="627" y="199.18"/>
      <point x="627" y="335" type="curve" smooth="yes"/>
      <point x="627" y="576.824"/>
      <point x="512.711" y="675"/>
      <point x="390" y="675" type="curve" smooth="yes"/>
      <point x="204.79" y="675"/>
      <point x="160" y="493.562"/>
      <point x="160" y="365" type="curve" smooth="yes"/>
      <point x="160" y="115.942"/>
      <point x="274.289" y="25"/>
    </contour>
    <contour>
      <point x="263" y="777" type="curve"/>
      <point x="238" y="777" type="line"/>
      <point x="240.218" y="859"/>
      <point x="276.805" y="904"/>
      <point x="340" y="904" type="curve" smooth="yes"/>
      <point x="375.482" y="904"/>
      <point x="408.745" y="883.112"/>
      <point x="438" y="862.992" type="curve" smooth="yes"/>
      <point x="460.332" y="847.633"/>
      <point x="480.966" y="835"/>
      <point x="498" y="835" type="curve" smooth="yes"/>
      <point x="524" y="835"/>
      <point x="540" y="859"/>
      <point x="545" y="904" type="curve"/>
      <point x="570" y="904" type="line"/>
      <point x="570" y="829.24"/>
      <point x="532.059" y="775"/>
      <point x="466" y="775" type="curve" smooth="yes"/>
      <point x="431.561" y="775"/>
      <point x="399.419" y="795.443"/>
      <point x="373" y="813.939" type="curve" smooth="yes"/>
      <point x="349.304" y="830.529"/>
      <point x="327.375" y="844"/>
      <point x="308" y="844" type="curve" smooth="yes"/>
      <point x="281" y="844"/>
      <point x="267" y="815"/>
    </contour>
  </outline>
</glyph>
<glyph name="Oslash" format="2">
  <advance width="813"/>
  <unicode hex="00D8"/>
  <outline>
    <contour>
      <point x="397" y="25" type="curve" smooth="yes"/>
      <point x="591.895" y="25"/>
      <point x="627" y="199.18"/>
      <point x="627" y="335" type="curve" smooth="yes"/>
      <point x="627" y="417.784"/>
      <point x="613.606" y="483.734"/>
      <point x="591.066" y="534.674" type="curve"/>
      <point x="231.595" y="102.7" type="line"/>
      <point x="275.594" y="48.044"/>
      <point x="335.23" y="25"/>
    </contour>
    <contour>
      <point x="122" y="-29" type="line"/>
      <point x="91" y="0" type="line"/>
      <point x="150.213" y="71.3978" type="line"/>
      <point x="84.5634" y="130.475"/>
      <point x="40" y="220.423"/>
      <point x="40" y="343" type="curve" smooth="yes"/>
      <point x="40" y="551.084"/>
      <point x="178.619" y="715"/>
      <point x="404" y="715" type="curve" smooth="yes"/>
      <point x="483.559" y="715"/>
      <point x="561.875" y="691.143"/>
      <point x="623.541" y="642.129" type="curve"/>
      <point x="679" y="709" type="line"/>
      <point x="712" y="680" type="line"/>
      <point x="655.817" y="612.485" type="line"/>
      <point x="711.329" y="553.631"/>
      <point x="747" y="468.915"/>
      <point x="747" y="357" type="curve" smooth="yes"/>
      <point x="747" y="127.322"/>
      <point x="601.4" y="-15"/>
      <point x="383" y="-15" type="curve" smooth="yes"/>
      <point x="313.574" y="-15"/>
      <point x="242.778" y="4.71173"/>
      <point x="183.674" y="45.1128" type="curve"/>
    </contour>
    <contour>
      <point x="568.735" y="576.044" type="line"/>
      <point x="523.909" y="644.623"/>
      <point x="458.258" y="675"/>
      <point x="390" y="675" type="curve" smooth="yes"/>
      <point x="204.79" y="675"/>
      <point x="160" y="493.562"/>
      <point x="160" y="365" type="curve" smooth="yes"/>
      <point x="160" y="266.659"/>
      <point x="177.819" y="192.97"/>
      <point x="206.938" y="139.797" type="curve"/>
    </contour>
  </outline>
</glyph>
<glyph name="Yacute" format="2">
  <advance width="765"/>
  <unicode hex="00DD"/>
  <outline>
    <contour>
      <point x="320" y="700" type="line"/>
      <point x="320" y="670" type="line"/>
      <point x="289" y="650" type="line" smooth="yes"/>
      <point x="278.591" y="643.284"/>
      <point x="274" y="624"/>
      <point x="282" y="610" type="curve" smooth="yes"/>
      <point x="430" y="364" type="line"/>
      <point x="568" y="610" type="line" smooth="yes"/>
      <point x="576" y="626"/>
      <point x="573.448" y="644.621"/>
      <point x="560" y="650" type="curve" smooth="yes"/>
      <point x="510" y="670" type="line"/>
      <point x="510" y="700" type="line"/>
      <point x="725" y="700" type="line"/>
      <point x="725" y="670" type="line"/>
      <point x="680" y="650" type="line" smooth="yes"/>
      <point x="649.438" y="636.417"/>
      <point x="634.615" y="615"/>
      <point x="621" y="593" type="curve" smooth="yes"/>
      <point x="451" y="304.415" type="line"/>
      <point x="451" y="90" type="line" smooth="yes"/>
      <point x="451" y="70"/>
      <point x="461" y="55"/>
      <point x="481" y="50" type="curve" smooth="yes"/>
      <point x="561" y="30" type="line"/>
      <point x="561" y="0" type="line"/>
      <point x="231" y="0" type="line"/>
      <point x="231" y="30" type="line"/>
      <point x="311" y="50" type="line" smooth="yes"/>
      <point x="331" y="55"/>
      <point x="341" y="70"/>
      <point x="341" y="90" type="curve" smooth="yes"/>
      <point x="341" y="294.076" type="line"/>
      <point x="135" y="610" type="line" smooth="yes"/>
      <point x="120.857" y="628"/>
      <point x="105.646" y="637.177"/>
      <point x="80" y="650" type="curve" smooth="yes"/>
      <point x="40" y="670" type="line"/>
      <point x="40" y="700" type="line"/>
    </contour>
    <contour>
      <point x="540" y="960" type="line"/>
      <point x="400" y="790" type="line"/>
      <point x="370" y="790" type="line"/>
      <point x="420" y="960" type="line"/>
    </contour>
  </outline>
</glyph>
<glyph name="Thorn" format="2">
  <advance width="640"/>
  <unicode hex="00DE"/>
  <outline>
    <contour>
      <point x="350" y="129" type="curve" smooth="yes"/>
      <point x="330" y="129"/>
      <point x="305" y="134"/>
      <point x="290" y="139" type="curve"/>
      <point x="290" y="179" type="line"/>
      <point x="430" y="159"/>
      <point x="480" y="250"/>
      <point x="480" y="349" type="curve" smooth="yes"/>
      <point x="480" y="440"/>
      <point x="430" y="499"/>
      <point x="320" y="499" type="curve" smooth="yes"/>
      <point x="300" y="499" type="line" smooth="yes"/>
      <point x="280" y="499"/>
      <point x="260" y="489"/>
      <point x="260" y="459" type="curve" smooth="yes"/>
      <point x="260" y="90" type="line" smooth="yes"/>
      <point x="260" y="70"/>
      <point x="270" y="55"/>
      <point x="290" y="50" type="curve" smooth="yes"/>
      <point x="370" y="30" type="line"/>
      <point x="370" y="0" type="line"/>
      <point x="40" y="0" type="line"/>
      <point x="40" y="30" type="line"/>
      <point x="120" y="50" type="line" smooth="yes"/>
      <point x="140" y="55"/>
      <point x="150" y="70"/>
      <point x="150" y="90" type="curve" smooth="yes"/>
      <point x="150" y="539" type="line"/>
      <point x="150" y="600" type="line"/>
      <point x="150" y="610" type="line" smooth="yes"/>
      <point x="150" y="630"/>
      <point x="140" y="645"/>
      <point x="120" y="650" type="curve" smooth="yes"/>
      <point x="40" y="670" type="line"/>
      <point x="40" y="700" type="line"/>
      <point x="370" y="700" type="line"/>
      <point x="370" y="670" type="line"/>
      <point x="290" y="650" type="line" smooth="yes"/>
      <point x="270" y="645"/>
      <point x="260" y="630"/>
      <point x="260" y="610" type="curve" smooth="yes"/>
      <point x="260" y="600" type="line"/>
      <point x="260" y="539" type="line"/>
      <point x="350" y="539" type="line" smooth="yes"/>
      <point x="540" y="539"/>
      <point x="600" y="459"/>
      <point x="600" y="349" type="curve" smooth="yes"/>
      <point x="600" y="219"/>
      <point x="500" y="129"/>
    </contour>
  </outline>
</glyph>
<glyph name="germandbls" format="2">
  <advance width="619"/>
  <unicode hex="00DF"/>
  <outline>
    <contour>
      <point x="100" y="396" type="line"/>
      <point x="24" y="396" type="line"/>
      <point x="24" y="440" type="line"/>
      <point x="46" y="440"/>
      <point x="67.3281" y="443.817"/>
      <point x="90" y="463" type="curve" smooth="yes"/>
      <point x="133.68" y="499.957"/>
      <point x="103.006" y="576.66"/>
      <point x="181" y="655.999" type="curve" smooth="yes"/>
      <point x="219" y="694.654"/>
      <point x="262" y="714.999"/>
      <point x="328" y="714.999" type="curve" smooth="yes"/>
      <point x="443.698" y="714.999"/>
      <point x="525" y="654.588"/>
      <point x="525" y="567.999" type="curve" smooth="yes"/>
      <point x="525" y="493.922"/>
      <point x="482.73" y="446.455"/>
      <point x="376" y="411" type="curve"/>
      <point x="376" y="409" type="line"/>
      <point x="528.833" y="393.773"/>
      <point x="579" y="288.136"/>
      <point x="579" y="212" type="curve" smooth="yes"/>
      <point x="579" y="101.315"/>
      <point x="517.86" y="-7"/>
      <point x="385" y="-7" type="curve" smooth="yes"/>
      <point x="325" y="-7"/>
      <point x="294" y="23"/>
      <point x="294" y="59" type="curve" smooth="yes"/>
      <point x="294" y="84"/>
      <point x="312" y="102"/>
      <point x="335" y="102" type="curve" smooth="yes"/>
      <point x="392" y="102"/>
      <point x="347" y="26"/>
      <point x="404" y="26" type="curve" smooth="yes"/>
      <point x="441" y="26"/>
      <point x="469" y="55.4004"/>
      <point x="469" y="161" type="curve" smooth="yes"/>
      <point x="469" y="241.332"/>
      <point x="419" y="365.655"/>
      <point x="296" y="380" type="curve"/>
      <point x="296" y="422" type="line"/>
      <point x="387" y="437.667"/>
      <point x="425" y="493.619"/>
      <point x="425" y="563" type="curve" smooth="yes"/>
      <point x="425" y="624.564"/>
      <point x="375" y="672"/>
      <point x="311" y="672" type="curve" smooth="yes"/>
      <point x="244" y="672"/>
      <point x="200" y="624.674"/>
      <point x="200" y="527" type="curve" smooth="yes"/>
      <point x="200" y="95" type="line" smooth="yes"/>
      <point x="200" y="55"/>
      <point x="220" y="35"/>
      <point x="270" y="25" type="curve"/>
      <point x="270" y="0" type="line"/>
      <point x="30" y="0" type="line"/>
      <point x="30" y="25" type="line"/>
      <point x="80" y="35"/>
      <point x="100" y="55"/>
      <point x="100" y="95" type="curve" smooth="yes"/>
    </contour>
  </outline>
</glyph>
<glyph name="adieresis" format="2">
  <advance width="510"/>
  <unicode hex="00E4"/>
  <outline>
    <contour>
      <point x="410" y="-15" type="curve" smooth="yes"/>
      <point x="360" y="-15"/>
      <point x="320" y="5"/>
      <point x="310" y="55" type="curve"/>
      <point x="280" y="5"/>
      <point x="240" y="-20"/>
      <point x="180" y="-20" type="curve" smooth="yes"/>
      <point x="100" y="-20"/>
      <point x="40" y="40"/>
      <point x="40" y="120" type="curve" smooth="yes"/>
      <point x="40" y="220"/>
      <point x="160" y="250"/>
      <point x="310" y="300" type="curve"/>
      <point x="310" y="395" type="line" smooth="yes"/>
      <point x="310" y="445"/>
      <point x="275" y="465"/>
      <point x="235" y="465" type="curve" smooth="yes"/>
      <point x="194.586" y="465"/>
      <point x="157.882" y="448.67"/>
      <point x="157.882" y="416" type="curve" smooth="yes"/>
      <point x="157.882" y="408"/>
      <point x="160.207" y="399.586"/>
      <point x="165" y="390" type="curve" smooth="yes"/>
      <point x="180" y="360" type="line"/>
      <point x="160" y="340"/>
      <point x="130" y="330"/>
      <point x="110" y="330" type="curve" smooth="yes"/>
      <point x="80" y="330"/>
      <point x="70" y="360"/>
      <point x="70" y="390" type="curve" smooth="yes"/>
      <point x="70" y="430"/>
      <point x="120" y="500"/>
      <point x="260" y="500" type="curve" smooth="yes"/>
      <point x="380" y="500"/>
      <point x="410" y="430"/>
      <point x="410" y="370" type="curve" smooth="yes"/>
      <point x="410" y="90" type="line" smooth="yes"/>
      <point x="410" y="60"/>
      <point x="430" y="45"/>
      <point x="445" y="45" type="curve" smooth="yes"/>
      <point x="460" y="45"/>
      <point x="480" y="50"/>
      <point x="490" y="60" type="curve"/>
      <point x="510" y="40" type="line"/>
      <point x="490" y="10"/>
      <point x="460" y="-15"/>
    </contour>
    <contour>
      <point x="310" y="150" type="curve" smooth="yes"/>
      <point x="310" y="265" type="line"/>
      <point x="180" y="215"/>
      <point x="145" y="190"/>
      <point x="145" y="130" type="curve" smooth="yes"/>
      <point x="145" y="90"/>
      <point x="170" y="50"/>
      <point x="230" y="50" type="curve" smooth="yes"/>
      <point x="285" y="50"/>
      <point x="310" y="90"/>
    </contour>
    <contour>
      <point x="165.4" y="676.6" type="curve" smooth="yes"/>
      <point x="197.3" y="676.6"/>
      <point x="223.7" y="650.199"/>
      <point x="223.7" y="618.3" type="curve" smooth="yes"/>
      <point x="223.7" y="586.4"/>
      <point x="197.3" y="560"/>
      <point x="165.4" y="560" type="curve" smooth="yes"/>
      <point x="133.5" y="560"/>
      <point x="107.1" y="586.4"/>
      <point x="107.1" y="618.3" type="curve" smooth="yes"/>
      <point x="107.1" y="650.199"/>
      <point x="133.5" y="676.6"/>
    </contour>
    <contour>
      <point x="354.6" y="676.6" type="curve" smooth="yes"/>
      <point x="386.5" y="676.6"/>
      <point x="412.9" y="650.199"/>
      <point x="412.9" y="618.3" type="curve" smooth="yes"/>
      <point x="412.9" y="586.4"/>
      <point x="386.5" y="560"/>
      <point x="354.6" y="560" type="curve" smooth="yes"/>
      <point x="322.7" y="560"/>
      <point x="296.3" y="586.4"/>
      <point x="296.3" y="618.3" type="curve" smooth="yes"/>
      <point x="296.3" y="650.199"/>
      <point x="322.7" y="676.6"/>
    </contour>
  </outline>
</glyph>
<glyph name="idieresis" format="2">
  <advance width="300"/>
  <unicode hex="00EF"/>
  <outline>
    <contour>
      <point x="270" y="0" type="line"/>
      <point x="30" y="0" type="line"/>
      <point x="30" y="25" type="line"/>
      <point x="80" y="35"/>
      <point x="100" y="55"/>
      <point x="100" y="95" type="curve" smooth="yes"/>
      <point x="100" y="400" type="line"/>
      <point x="40" y="430" type="line"/>
      <point x="40" y="450" type="line"/>
      <point x="170" y="500" type="line"/>
      <point x="200" y="490" type="line"/>
      <point x="200" y="95" type="line" smooth="yes"/>
      <point x="200" y="55"/>
      <point x="220" y="35"/>
      <point x="270" y="25" type="curve"/>
    </contour>
    <contour>
      <point x="55.4004" y="676.6" type="curve" smooth="yes"/>
      <point x="87.2998" y="676.6"/>
      <point x="113.7" y="650.199"/>
      <point x="113.7" y="618.3" type="curve" smooth="yes"/>
      <point x="113.7" y="586.4"/>
      <point x="87.2998" y="560"/>
      <point x="55.4004" y="560" type="curve" smooth="yes"/>
      <point x="23.5" y="560"/>
      <point x="-2.90039" y="586.4"/>
      <point x="-2.90039" y="618.3" type="curve" smooth="yes"/>
      <point x="-2.90039" y="650.199"/>
      <point x="23.5" y="676.6"/>
    </contour>
    <contour>
      <point x="244.6" y="676.6" type="curve" smooth="yes"/>
      <point x="276.5" y="676.6"/>
      <point x="302.9" y="650.199"/>
      <point x="302.9" y="618.3" type="curve" smooth="yes"/>
      <point x="302.9" y="586.4"/>
      <point x="276.5" y="560"/>
      <point x="244.6" y="560" type="curve" smooth="yes"/>
      <point x="212.7" y="560"/>
      <point x="186.3" y="586.4"/>
      <point x="186.3" y="618.3" type="curve" smooth="yes"/>
      <point x="186.3" y="650.199"/>
      <point x="212.7" y="676.6"/>
    </contour>
  </outline>
</glyph>
<glyph name="ntilde" format="2">
  <advance width="590"/>
  <unicode hex="00F1"/>
  <outline>
    <contour>
      <point x="270" y="30" type="curve"/>
      <point x="270" y="0" type="line"/>
      <point x="30" y="0" type="line"/>
      <point x="30" y="30" type="line"/>
      <point x="80" y="40"/>
      <point x="100" y="60"/>
      <point x="100" y="100" type="curve" smooth="yes"/>
      <point x="100" y="410" type="line"/>
      <point x="40" y="440" type="line"/>
      <point x="40" y="460" type="line"/>
      <point x="165" y="500" type="line"/>
      <point x="185" y="490" type="line"/>
      <point x="185" y="415" type="line"/>
      <point x="190" y="410" type="line"/>
      <point x="225" y="460"/>
      <point x="292" y="495"/>
      <point x="342" y="495" type="curve" smooth="yes"/>
      <point x="465" y="495"/>
      <point x="510" y="425"/>
      <point x="510" y="330" type="curve" smooth="yes"/>
      <point x="510" y="100" type="line" smooth="yes"/>
      <point x="510" y="60"/>
      <point x="530" y="40"/>
      <point x="580" y="30" type="curve"/>
      <point x="580" y="0" type="line"/>
      <point x="340" y="0" type="line"/>
      <point x="340" y="30" type="line"/>
      <point x="390" y="40"/>
      <point x="410" y="60"/>
      <point x="410" y="100" type="curve" smooth="yes"/>
      <point x="410" y="320" type="line" smooth="yes"/>
      <point x="410" y="390"/>
      <point x="367" y="435"/>
      <point x="302" y="435" type="curve" smooth="yes"/>
      <point x="245" y="435"/>
      <point x="200" y="390"/>
      <point x="200" y="320" type="curve" smooth="yes"/>
      <point x="200" y="100" type="line" smooth="yes"/>
      <point x="200" y="60"/>
      <point x="220" y="40"/>
    </contour>
    <contour>
      <point x="164" y="562" type="curve"/>
      <point x="139" y="562" type="line"/>
      <point x="141.218" y="644"/>
      <point x="177.805" y="689"/>
      <point x="241" y="689" type="curve" smooth="yes"/>
      <point x="276.482" y="689"/>
      <point x="309.745" y="668.112"/>
      <point x="339" y="647.992" type="curve" smooth="yes"/>
      <point x="361.332" y="632.633"/>
      <point x="381.966" y="620"/>
      <point x="399" y="620" type="curve" smooth="yes"/>
      <point x="425" y="620"/>
      <point x="441" y="644"/>
      <point x="446" y="689" type="curve"/>
      <point x="471" y="689" type="line"/>
      <point x="471" y="614.24"/>
      <point x="433.059" y="560"/>
      <point x="367" y="560" type="curve" smooth="yes"/>
      <point x="332.561" y="560"/>
      <point x="300.419" y="580.443"/>
      <point x="274" y="598.939" type="curve" smooth="yes"/>
      <point x="250.304" y="615.529"/>
      <point x="228.375" y="629"/>
      <point x="209" y="629" type="curve" smooth="yes"/>
      <point x="182" y="629"/>
      <point x="168" y="600"/>
    </contour>
  </outline>
</glyph>
<glyph name="otilde" format="2">
  <advance width="565"/>
  <unicode hex="00F5"/>
  <outline>
    <contour>
      <point x="275" y="-15" type="curve" smooth="yes"/>
      <point x="160" y="-15"/>
      <point x="40" y="65"/>
      <point x="40" y="235" type="curve" smooth="yes"/>
      <point x="40" y="380"/>
      <point x="135" y="495"/>
      <point x="290" y="495" type="curve" smooth="yes"/>
      <point x="410" y="495"/>
      <point x="525" y="415"/>
      <point x="525" y="245" type="curve" smooth="yes"/>
      <point x="525" y="85"/>
      <point x="425" y="-15"/>
    </contour>
    <contour>
      <point x="285" y="25" type="curve" smooth="yes"/>
      <point x="395" y="25"/>
      <point x="415" y="140"/>
      <point x="415" y="230" type="curve" smooth="yes"/>
      <point x="415" y="390"/>
      <point x="350" y="455"/>
      <point x="280" y="455" type="curve" smooth="yes"/>
      <point x="175" y="455"/>
      <point x="150" y="335"/>
      <point x="150" y="250" type="curve" smooth="yes"/>
      <point x="150" y="85"/>
      <point x="215" y="25"/>
    </contour>
    <contour>
      <point x="149" y="557" type="curve"/>
      <point x="124" y="557" type="line"/>
      <point x="126.218" y="639"/>
      <point x="162.805" y="684"/>
      <point x="226" y="684" type="curve" smooth="yes"/>
      <point x="261.482" y="684"/>
      <point x="294.745" y="663.112"/>
      <point x="324" y="642.992" type="curve" smooth="yes"/>
      <point x="346.332" y="627.633"/>
      <point x="366.966" y="615"/>
      <point x="384" y="615" type="curve" smooth="yes"/>
      <point x="410" y="615"/>
      <point x="426" y="639"/>
      <point x="431" y="684" type="curve"/>
      <point x="456" y="684" type="line"/>
      <point x="456" y="609.24"/>
      <point x="418.059" y="555"/>
      <point x="352" y="555" type="curve" smooth="yes"/>
      <point x="317.561" y="555"/>
      <point x="285.419" y="575.443"/>
      <point x="259" y="593.939" type="curve" smooth="yes"/>
      <point x="235.304" y="610.529"/>
      <point x="213.375" y="624"/>
      <point x="194" y="624" type="curve" smooth="yes"/>
      <point x="167" y="624"/>
      <point x="153" y="595"/>
    </contour>
  </outline>
</glyph>
<glyph name="yacute" format="2">
  <advance width="537"/>
  <unicode hex="00FD"/>
  <outline>
    <contour>
      <point x="90" y="-220" type="curve" smooth="yes"/>
      <point x="60" y="-220"/>
      <point x="35" y="-195"/>
      <point x="35" y="-165" type="curve" smooth="yes"/>
      <point x="35" y="-135"/>
      <point x="60" y="-110"/>
      <point x="90" y="-110" type="curve" smooth="yes"/>
      <point x="180" y="-110"/>
      <point x="200" y="-100"/>
      <point x="250" y="0" type="curve"/>
      <point x="70" y="385" type="line" smooth="yes"/>
      <point x="54" y="420"/>
      <point x="50" y="445"/>
      <point x="0" y="455" type="curve"/>
      <point x="0" y="480" type="line"/>
      <point x="250" y="480" type="line"/>
      <point x="250" y="450" type="line"/>
      <point x="210" y="440"/>
      <point x="172" y="420"/>
      <point x="185" y="385" type="curve" smooth="yes"/>
      <point x="295" y="90" type="line"/>
      <point x="403" y="368" type="line" smooth="yes"/>
      <point x="423" y="421"/>
      <point x="380" y="438"/>
      <point x="340" y="448" type="curve"/>
      <point x="340" y="480" type="line"/>
      <point x="537" y="480" type="line"/>
      <point x="537" y="448" type="line"/>
      <point x="481" y="429"/>
      <point x="479" y="421"/>
      <point x="467" y="392" type="curve" smooth="yes"/>
      <point x="290" y="-20" type="line" smooth="yes"/>
      <point x="224" y="-175"/>
      <point x="180" y="-220"/>
    </contour>
    <contour>
      <point x="420" y="730" type="line"/>
      <point x="280" y="560" type="line"/>
      <point x="250" y="560" type="line"/>
      <point x="300" y="730" type="line"/>
    </contour>
  </outline>
</glyph>
<glyph name="ydieresis" format="2">
  <advance width="537"/>
  <unicode hex="00FF"/>
  <outline>
    <contour>
      <point x="90" y="-220" type="curve" smooth="yes"/>
      <point x="60" y="-220"/>
      <point x="35" y="-195"/>
      <point x="35" y="-165" type="curve" smooth="yes"/>
      <point x="35" y="-135"/>
      <point x="60" y="-110"/>
      <point x="90" y="-110" type="curve" smooth="yes"/>
      <point x="180" y="-110"/>
      <point x="200" y="-100"/>
      <point x="250" y="0" type="curve"/>
      <point x="70" y="385" type="line" smooth="yes"/>
      <point x="54" y="420"/>
      <point x="50" y="445"/>
      <point x="0" y="455" type="curve"/>
      <point x="0" y="480" type="line"/>
      <point x="250" y="480" type="line"/>
      <point x="250" y="450" type="line"/>
      <point x="210" y="440"/>
      <point x="172" y="420"/>
      <point x="185" y="385" type="curve" smooth="yes"/>
      <point x="295" y="90" type="line"/>
      <point x="403" y="368" type="line" smooth="yes"/>
      <point x="423" y="421"/>
      <point x="380" y="438"/>
      <point x="340" y="448" type="curve"/>
      <point x="340" y="480" type="line"/>
      <point x="537" y="480" type="line"/>
      <point x="537" y="448" type="line"/>
      <point x="481" y="429"/>
      <point x="479" y="421"/>
      <point x="467" y="392" type="curve" smooth="yes"/>
      <point x="290" y="-20" type="line" smooth="yes"/>
      <point x="224" y="-175"/>
      <point x="180" y="-220"/>
    </contour>
    <contour>
      <point x="173.9" y="671.6" type="curve" smooth="yes"/>
      <point x="205.8" y="671.6"/>
      <point x="232.2" y="645.199"/>
      <point x="232.2" y="613.3" type="curve" smooth="yes"/>
      <point x="232.2" y="581.4"/>
      <point x="205.8" y="555"/>
      <point x="173.9" y="555" type="curve" smooth="yes"/>
      <point x="142" y="555"/>
      <point x="115.6" y="581.4"/>
      <point x="115.6" y="613.3" type="curve" smooth="yes"/>
      <point x="115.6" y="645.199"/>
      <point x="142" y="671.6"/>
    </contour>
    <contour>
      <point x="363.1" y="671.6" type="curve" smooth="yes"/>
      <point x="395" y="671.6"/>
      <point x="421.4" y="645.199"/>
      <point x="421.4" y="613.3" type="curve" smooth="yes"/>
      <point x="421.4" y="581.4"/>
      <point x="395" y="555"/>
      <point x="363.1" y="555" type="curve" smooth="yes"/>
      <point x="331.2" y="555"/>
      <point x="304.8" y="581.4"/>
      <point x="304.8" y="613.3" type="curve" smooth="yes"/>
      <point x="304.8" y="645.199"/>
      <point x="331.2" y="671.6"/>
    </contour>
  </outline>
</glyph>
<glyph name="circumflex" format="2">
  <advance width="573"/>
  <unicode hex="02C6"/>
  <anchor x="270" y="600" name="_Anchor1"/>
  <anchor x="270" y="600" name="_Anchor-1"/>
  <outline>
    <contour>
      <point x="210" y="750" type="line"/>
      <point x="330" y="750" type="line"/>
      <point x="430" y="580" type="line"/>
      <point x="400" y="580" type="line"/>
      <point x="270" y="696.316" type="line"/>
      <point x="140" y="580" type="line"/>
      <point x="110" y="580" type="line"/>
    </contour>
  </outline>
</glyph>
<glyph name="tilde" format="2">
  <advance width="452"/>
  <unicode hex="02DC"/>
  <outline>
    <contour>
      <point x="85" y="582" type="curve"/>
      <point x="60" y="582" type="line"/>
      <point x="62.2178" y="664"/>
      <point x="98.8047" y="709"/>
      <point x="162" y="709" type="curve" smooth="yes"/>
      <point x="197.482" y="709"/>
      <point x="230.745" y="688.112"/>
      <point x="260" y="667.992" type="curve" smooth="yes"/>
      <point x="282.332" y="652.633"/>
      <point x="302.966" y="640"/>
      <point x="320" y="640" type="curve" smooth="yes"/>
      <point x="346" y="640"/>
      <point x="362" y="664"/>
      <point x="367" y="709" type="curve"/>
      <point x="392" y="709" type="line"/>
      <point x="392" y="634.24"/>
      <point x="354.059" y="580"/>
      <point x="288" y="580" type="curve" smooth="yes"/>
      <point x="253.561" y="580"/>
      <point x="221.419" y="600.443"/>
      <point x="195" y="618.939" type="curve" smooth="yes"/>
      <point x="171.304" y="635.529"/>
      <point x="149.375" y="649"/>
      <point x="130" y="649" type="curve" smooth="yes"/>
      <point x="103" y="649"/>
      <point x="89" y="620"/>
    </contour>
  </outline>
</glyph>
<glyph name="tildecomb" format="2">
  <unicode hex="0303"/>
  <anchor x="-210" y="600" name="_Anchor1"/>
  <anchor x="-210" y="600" name="_Anchor-1"/>
  <outline>
    <contour>
      <point x="-345" y="582" type="curve"/>
      <point x="-370" y="582" type="line"/>
      <point x="-367.782" y="664"/>
      <point x="-331.195" y="709"/>
      <point x="-268" y="709" type="curve" smooth="yes"/>
      <point x="-232.518" y="709"/>
      <point x="-199.255" y="688.112"/>
      <point x="-170" y="667.992" type="curve" smooth="yes"/>
      <point x="-147.668" y="652.633"/>
      <point x="-127.034" y="640"/>
      <point x="-110" y="640" type="curve" smooth="yes"/>
      <point x="-84" y="640"/>
      <point x="-68" y="664"/>
      <point x="-63" y="709" type="curve"/>
      <point x="-38" y="709" type="line"/>
      <point x="-38" y="634.24"/>
      <point x="-75.9414" y="580"/>
      <point x="-142" y="580" type="curve" smooth="yes"/>
      <point x="-176.439" y="580"/>
      <point x="-208.581" y="600.443"/>
      <point x="-235" y="618.939" type="curve" smooth="yes"/>
      <point x="-258.696" y="635.529"/>
      <point x="-280.625" y="649"/>
      <point x="-300" y="649" type="curve" smooth="yes"/>
      <point x="-327" y="649"/>
      <point x="-341" y="620"/>
    </contour>
  </outline>
</glyph>
<glyph name="uni0308" format="2">
  <unicode hex="0308"/>
  <anchor x="-262" y="600" name="_Anchor1"/>
  <anchor x="-262" y="600" name="_Anchor-1"/>
  <outline>
    <contour>
      <point x="-357.6" y="691.3" type="curve" smooth="yes"/>
      <point x="-325.7" y="691.3"/>
      <point x="-299.3" y="664.899"/>
      <point x="-299.3" y="633" type="curve" smooth="yes"/>
      <point x="-299.3" y="601.101"/>
      <point x="-325.7" y="574.7"/>
      <point x="-357.6" y="574.7" type="curve" smooth="yes"/>
      <point x="-389.5" y="574.7"/>
      <point x="-415.9" y="601.101"/>
      <point x="-415.9" y="633" type="curve" smooth="yes"/>
      <point x="-415.9" y="664.899"/>
      <point x="-389.5" y="691.3"/>
    </contour>
    <contour>
      <point x="-168.4" y="691.3" type="curve" smooth="yes"/>
      <point x="-136.5" y="691.3"/>
      <point x="-110.1" y="664.899"/>
      <point x="-110.1" y="633" type="curve" smooth="yes"/>
      <point x="-110.1" y="601.101"/>
      <point x="-136.5" y="574.7"/>
      <point x="-168.4" y="574.7" type="curve" smooth="yes"/>
      <point x="-200.3" y="574.7"/>
      <point x="-226.7" y="601.101"/>
      <point x="-226.7" y="633" type="curve" smooth="yes"/>
      <point x="-226.7" y="664.899"/>
      <point x="-200.3" y="691.3"/>
    </contour>
  </outline>
</glyph>
<glyph name="uni030A" format="2">
  <unicode hex="030A"/>
  <anchor x="-135" y="600" name="_Anchor1"/>
  <anchor x="-135" y="600" name="_Anchor-1"/>
  <outline>
    <contour>
      <point x="-133.95" y="717.05" type="curve" smooth="yes"/>
      <point x="-163.65" y="717.05"/>
      <point x="-187.05" y="693.65"/>
      <point x="-187.05" y="663.95" type="curve" smooth="yes"/>
      <point x="-187.05" y="634.25"/>
      <point x="-163.65" y="609.95"/>
      <point x="-133.95" y="609.95" type="curve" smooth="yes"/>
      <point x="-104.25" y="609.95"/>
      <point x="-79.9502" y="634.25"/>
      <point x="-79.9502" y="663.95" type="curve" smooth="yes"/>
      <point x="-79.9502" y="693.65"/>
      <point x="-104.25" y="717.05"/>
    </contour>
    <contour>
      <point x="-134" y="757" type="curve" smooth="yes"/>
      <point x="-82" y="757"/>
      <point x="-40" y="716"/>
      <point x="-40" y="664" type="curve" smooth="yes"/>
      <point x="-40" y="612"/>
      <point x="-82" y="570"/>
      <point x="-134" y="570" type="curve" smooth="yes"/>
      <point x="-186" y="570"/>
      <point x="-227" y="612"/>
      <point x="-227" y="664" type="curve" smooth="yes"/>
      <point x="-227" y="716"/>
      <point x="-186" y="757"/>
    </contour>
  </outline>
</glyph>
<glyph name="uni0404" format="2">
  <advance width="664"/>
  <unicode hex="0404"/>
  <outline>
    <contour>
      <point x="404" y="-15" type="line" smooth="yes"/>
      <point x="490.464" y="-15"/>
      <point x="563.638" y="12.708"/>
      <point x="624" y="59" type="curve"/>
      <point x="624" y="206" type="line"/>
      <point x="580" y="206" type="line"/>
      <point x="554.559" y="79.0381"/>
      <point x="480.287" y="25"/>
      <point x="407" y="25" type="curve" smooth="yes"/>
      <point x="397" y="25" type="line" smooth="yes"/>
      <point x="286.473" y="25"/>
      <point x="182.779" y="98.7792"/>
      <point x="163.277" y="295.422" type="curve"/>
      <point x="177.194" y="289.699"/>
      <point x="193.064" y="286.606"/>
      <point x="210.737" y="286.606" type="curve" smooth="yes"/>
      <point x="249.189" y="286.606"/>
      <point x="285.076" y="306.902"/>
      <point x="314.572" y="325.266" type="curve" smooth="yes"/>
      <point x="341.029" y="341.736"/>
      <point x="365.513" y="355.11"/>
      <point x="387.145" y="355.11" type="curve" smooth="yes"/>
      <point x="417.29" y="355.11"/>
      <point x="432.922" y="326.318"/>
      <point x="437.388" y="288.591" type="curve"/>
      <point x="465.3" y="288.591" type="line"/>
      <point x="462.824" y="370.003"/>
      <point x="421.975" y="414.681"/>
      <point x="351.417" y="414.681" type="curve" smooth="yes"/>
      <point x="311.801" y="414.681"/>
      <point x="274.663" y="393.941"/>
      <point x="242" y="373.966" type="curve" smooth="yes"/>
      <point x="217.066" y="358.717"/>
      <point x="194.029" y="346.175"/>
      <point x="175.01" y="346.175" type="curve" smooth="yes"/>
      <point x="169.685" y="346.175"/>
      <point x="164.736" y="346.977"/>
      <point x="160.17" y="348.562" type="curve"/>
      <point x="160.057" y="353.963"/>
      <point x="160" y="359.442"/>
      <point x="160" y="365" type="curve" smooth="yes"/>
      <point x="160" y="493.562"/>
      <point x="204.79" y="675"/>
      <point x="390" y="675" type="curve" smooth="yes"/>
      <point x="407" y="675" type="line" smooth="yes"/>
      <point x="480.287" y="675"/>
      <point x="554.559" y="620.962"/>
      <point x="580" y="494" type="curve"/>
      <point x="624" y="494" type="line"/>
      <point x="624" y="641" type="line"/>
      <point x="563.638" y="687.292"/>
      <point x="490.464" y="715"/>
      <point x="404" y="715" type="curve" smooth="yes"/>
      <point x="178.619" y="715"/>
      <point x="40" y="551.084"/>
      <point x="40" y="343" type="curve" smooth="yes"/>
      <point x="40" y="99.7559"/>
      <point x="215.488" y="-15"/>
      <point x="383" y="-15" type="curve" smooth="yes"/>
    </contour>
  </outline>
</glyph>
<glyph name="uni0407" format="2">
  <advance width="410"/>
  <unicode hex="0407"/>
  <outline>
    <contour>
      <point x="370" y="30" type="line"/>
      <point x="370" y="0" type="line"/>
      <point x="40" y="0" type="line"/>
      <point x="40" y="30" type="line"/>
      <point x="120" y="50" type="line" smooth="yes"/>
      <point x="140" y="55"/>
      <point x="150" y="70"/>
      <point x="150" y="90" type="curve" smooth="yes"/>
      <point x="150" y="610" type="line" smooth="yes"/>
      <point x="150" y="630"/>
      <point x="140" y="645"/>
      <point x="120" y="650" type="curve" smooth="yes"/>
      <point x="40" y="670" type="line"/>
      <point x="40" y="700" type="line"/>
      <point x="370" y="700" type="line"/>
      <point x="370" y="670" type="line"/>
      <point x="290" y="650" type="line" smooth="yes"/>
      <point x="270" y="645"/>
      <point x="260" y="630"/>
      <point x="260" y="610" type="curve" smooth="yes"/>
      <point x="260" y="90" type="line" smooth="yes"/>
      <point x="260" y="70"/>
      <point x="270" y="55"/>
      <point x="290" y="50" type="curve" smooth="yes"/>
    </contour>
    <contour>
      <point x="110.4" y="891.6" type="curve" smooth="yes"/>
      <point x="142.3" y="891.6"/>
      <point x="168.7" y="865.199"/>
      <point x="168.7" y="833.3" type="curve" smooth="yes"/>
      <point x="168.7" y="801.4"/>
      <point x="142.3" y="775"/>
      <point x="110.4" y="775" type="curve" smooth="yes"/>
      <point x="78.5" y="775"/>
      <point x="52.0996" y="801.4"/>
      <point x="52.0996" y="833.3" type="curve" smooth="yes"/>
      <point x="52.0996" y="865.199"/>
      <point x="78.5" y="891.6"/>
    </contour>
    <contour>
      <point x="299.6" y="891.6" type="curve" smooth="yes"/>
      <point x="331.5" y="891.6"/>
      <point x="357.9" y="865.199"/>
      <point x="357.9" y="833.3" type="curve" smooth="yes"/>
      <point x="357.9" y="801.4"/>
      <point x="331.5" y="775"/>
      <point x="299.6" y="775" type="curve" smooth="yes"/>
      <point x="267.7" y="775"/>
      <point x="241.3" y="801.4"/>
      <point x="241.3" y="833.3" type="curve" smooth="yes"/>
      <point x="241.3" y="865.199"/>
      <point x="267.7" y="891.6"/>
    </contour>
  </outline>
</glyph>
<glyph name="uni0413" format="2">
  <advance width="630"/>
  <unicode hex="0413"/>
  <anchor x="350" y="810" name="Anchor1"/>
  <anchor x="350" y="810" name="Anchor-1"/>
  <outline>
    <contour>
      <point x="150" y="90" type="curve" smooth="yes"/>
      <point x="150" y="610" type="line" smooth="yes"/>
      <point x="150" y="630"/>
      <point x="140" y="645"/>
      <point x="120" y="650" type="curve" smooth="yes"/>
      <point x="40" y="670" type="line"/>
      <point x="40" y="700" type="line"/>
      <point x="600" y="700" type="line"/>
      <point x="600" y="510" type="line"/>
      <point x="560" y="510" type="line"/>
      <point x="520" y="590" type="line" smooth="yes"/>
      <point x="495" y="640"/>
      <point x="460" y="650"/>
      <point x="400" y="650" type="curve" smooth="yes"/>
      <point x="300" y="650" type="line" smooth="yes"/>
      <point x="280" y="650"/>
      <point x="260" y="640"/>
      <point x="260" y="610" type="curve" smooth="yes"/>
      <point x="260" y="90" type="line" smooth="yes"/>
      <point x="260" y="70"/>
      <point x="270" y="55"/>
      <point x="290" y="50" type="curve" smooth="yes"/>
      <point x="370" y="30" type="line"/>
      <point x="370" y="0" type="line"/>
      <point x="40" y="0" type="line"/>
      <point x="40" y="30" type="line"/>
      <point x="120" y="50" type="line" smooth="yes"/>
      <point x="140" y="55"/>
      <point x="150" y="70"/>
    </contour>
  </outline>
</glyph>
<glyph name="uni0416" format="2">
  <advance width="1212"/>
  <unicode hex="0416"/>
  <outline>
    <contour>
      <point x="1172" y="0" type="line"/>
      <point x="980.436" y="0" type="line" smooth="yes"/>
      <point x="967.028" y="0"/>
      <point x="937.601" y="28.6895"/>
      <point x="910.869" y="57.3086" type="curve" smooth="yes"/>
      <point x="661" y="346.831" type="line"/>
      <point x="661" y="93.248" type="line"/>
      <point x="661" y="88.3916" type="line" smooth="yes"/>
      <point x="661" y="68.3916"/>
      <point x="670.647" y="55.0879"/>
      <point x="691" y="50" type="curve" smooth="yes"/>
      <point x="771" y="30" type="line"/>
      <point x="771" y="0" type="line"/>
      <point x="441" y="0" type="line"/>
      <point x="441" y="30" type="line"/>
      <point x="521" y="50" type="line" smooth="yes"/>
      <point x="540.403" y="54.8506"/>
      <point x="551" y="73.248"/>
      <point x="551" y="93.248" type="curve" smooth="yes"/>
      <point x="551" y="346.831" type="line"/>
      <point x="301.131" y="57.3086" type="line" smooth="yes"/>
      <point x="274.399" y="28.6895"/>
      <point x="244.972" y="0"/>
      <point x="231.564" y="0" type="curve" smooth="yes"/>
      <point x="40" y="0" type="line"/>
      <point x="40" y="30" type="line"/>
      <point x="84.1914" y="30"/>
      <point x="120.349" y="55.6182"/>
      <point x="165" y="88" type="curve"/>
      <point x="447" y="405" type="line"/>
      <point x="233" y="616" type="line" smooth="yes"/>
      <point x="201" y="649"/>
      <point x="153" y="670"/>
      <point x="108" y="670" type="curve"/>
      <point x="108" y="700" type="line"/>
      <point x="351" y="700" type="line"/>
      <point x="351" y="670" type="line"/>
      <point x="313" y="650" type="line" smooth="yes"/>
      <point x="305.332" y="645.965"/>
      <point x="300.949" y="642"/>
      <point x="300.949" y="632" type="curve" smooth="yes"/>
      <point x="300.949" y="622"/>
      <point x="307.529" y="614.236"/>
      <point x="320" y="603" type="curve" smooth="yes"/>
      <point x="551" y="372.737" type="line"/>
      <point x="551" y="610" type="line" smooth="yes"/>
      <point x="551" y="630"/>
      <point x="540.403" y="645.149"/>
      <point x="521" y="650" type="curve" smooth="yes"/>
      <point x="441" y="670" type="line"/>
      <point x="441" y="700" type="line"/>
      <point x="771" y="700" type="line"/>
      <point x="771" y="670" type="line"/>
      <point x="691" y="650" type="line" smooth="yes"/>
      <point x="671" y="645"/>
      <point x="661" y="630"/>
      <point x="661" y="610" type="curve" smooth="yes"/>
      <point x="661" y="372.737" type="line"/>
      <point x="892" y="603" type="line" smooth="yes"/>
      <point x="904.471" y="614.236"/>
      <point x="911.051" y="622"/>
      <point x="911.051" y="632" type="curve" smooth="yes"/>
      <point x="911.051" y="642"/>
      <point x="906.668" y="645.965"/>
      <point x="899" y="650" type="curve" smooth="yes"/>
      <point x="861" y="670" type="line"/>
      <point x="861" y="700" type="line"/>
      <point x="1104" y="700" type="line"/>
      <point x="1104" y="670" type="line"/>
      <point x="1059" y="670"/>
      <point x="1011" y="649"/>
      <point x="979" y="616" type="curve" smooth="yes"/>
      <point x="765" y="405" type="line"/>
      <point x="1047" y="88" type="line"/>
      <point x="1091.65" y="55.6182"/>
      <point x="1127.81" y="30"/>
      <point x="1172" y="30" type="curve"/>
    </contour>
  </outline>
</glyph>
<glyph name="uni041A" format="2">
  <advance width="811"/>
  <unicode hex="041A"/>
  <outline>
    <contour>
      <point x="771" y="0" type="line"/>
      <point x="579.436" y="0" type="line" smooth="yes"/>
      <point x="566.028" y="0"/>
      <point x="536.601" y="28.6895"/>
      <point x="509.869" y="57.3086" type="curve" smooth="yes"/>
      <point x="260" y="346.831" type="line"/>
      <point x="260" y="93.248" type="line" smooth="yes"/>
      <point x="260" y="73.248"/>
      <point x="270.597" y="54.8506"/>
      <point x="290" y="50" type="curve" smooth="yes"/>
      <point x="370" y="30" type="line"/>
      <point x="370" y="0" type="line"/>
      <point x="40" y="0" type="line"/>
      <point x="40" y="30" type="line"/>
      <point x="120" y="50" type="line" smooth="yes"/>
      <point x="140.353" y="55.0879"/>
      <point x="150" y="68.3916"/>
      <point x="150" y="88.3916" type="curve" smooth="yes"/>
      <point x="150" y="610" type="line" smooth="yes"/>
      <point x="150" y="630"/>
      <point x="140" y="645"/>
      <point x="120" y="650" type="curve" smooth="yes"/>
      <point x="40" y="670" type="line"/>
      <point x="40" y="700" type="line"/>
      <point x="370" y="700" type="line"/>
      <point x="370" y="670" type="line"/>
      <point x="290" y="650" type="line" smooth="yes"/>
      <point x="270.597" y="645.149"/>
      <point x="260" y="630"/>
      <point x="260" y="610" type="curve" smooth="yes"/>
      <point x="260" y="372.737" type="line"/>
      <point x="491" y="603" type="line" smooth="yes"/>
      <point x="503.471" y="614.236"/>
      <point x="510.051" y="622"/>
      <point x="510.051" y="632" type="curve" smooth="yes"/>
      <point x="510.051" y="642"/>
      <point x="505.668" y="645.965"/>
      <point x="498" y="650" type="curve" smooth="yes"/>
      <point x="460" y="670" type="line"/>
      <point x="460" y="700" type="line"/>
      <point x="703" y="700" type="line"/>
      <point x="703" y="670" type="line"/>
      <point x="658" y="670"/>
      <point x="610" y="649"/>
      <point x="578" y="616" type="curve" smooth="yes"/>
      <point x="364" y="405" type="line"/>
      <point x="646" y="88" type="line"/>
      <point x="690.651" y="55.6182"/>
      <point x="726.809" y="30"/>
      <point x="771" y="30" type="curve"/>
    </contour>
  </outline>
</glyph>
<glyph name="uni041B" format="2">
  <advance width="839"/>
  <unicode hex="041B"/>
  <outline>
    <contour>
      <point x="798" y="30" type="line"/>
      <point x="798" y="0" type="line"/>
      <point x="468" y="0" type="line"/>
      <point x="468" y="30" type="line"/>
      <point x="548" y="50" type="line" smooth="yes"/>
      <point x="568" y="55"/>
      <point x="578" y="70"/>
      <point x="578" y="90" type="curve" smooth="yes"/>
      <point x="578" y="610" type="line" smooth="yes"/>
      <point x="578" y="630"/>
      <point x="568" y="645"/>
      <point x="548" y="650" type="curve"/>
      <point x="378" y="650" type="line"/>
      <point x="368" y="650" type="line" smooth="yes"/>
      <point x="358.901" y="650"/>
      <point x="349.802" y="647.93"/>
      <point x="342.586" y="642.849" type="curve" smooth="yes"/>
      <point x="332.862" y="635.46"/>
      <point x="328" y="623.946"/>
      <point x="328" y="610" type="curve" smooth="yes"/>
      <point x="328" y="600" type="line"/>
      <point x="328" y="410" type="line" smooth="yes"/>
      <point x="328" y="169.593"/>
      <point x="235.144" y="-21.9746"/>
      <point x="123.87" y="-21.9746" type="curve" smooth="yes"/>
      <point x="71.2705" y="-21.9746"/>
      <point x="39.71" y="12.3965"/>
      <point x="39.71" y="67.3896" type="curve" smooth="yes"/>
      <point x="39.71" y="114.361"/>
      <point x="64.6953" y="146.5"/>
      <point x="97.5703" y="146.5" type="curve" smooth="yes"/>
      <point x="162.005" y="146.5"/>
      <point x="131.436" y="65.9248"/>
      <point x="179.1" y="65.9248" type="curve" smooth="yes"/>
      <point x="220.49" y="65.9248"/>
      <point x="258" y="265.958"/>
      <point x="258" y="410" type="curve" smooth="yes"/>
      <point x="258" y="600" type="line"/>
      <point x="258" y="610" type="line" smooth="yes"/>
      <point x="258" y="630"/>
      <point x="248" y="645"/>
      <point x="228" y="650" type="curve" smooth="yes"/>
      <point x="148" y="670" type="line"/>
      <point x="148" y="700" type="line"/>
      <point x="258" y="700" type="line"/>
      <point x="378" y="700" type="line"/>
      <point x="438" y="700" type="line"/>
      <point x="468" y="700" type="line"/>
      <point x="608" y="700" type="line"/>
      <point x="798" y="700" type="line"/>
      <point x="798" y="670" type="line"/>
      <point x="718" y="650" type="line" smooth="yes"/>
      <point x="698" y="645"/>
      <point x="688" y="630"/>
      <point x="688" y="610" type="curve" smooth="yes"/>
      <point x="688" y="90" type="line" smooth="yes"/>
      <point x="688" y="70"/>
      <point x="698" y="55"/>
      <point x="718" y="50" type="curve" smooth="yes"/>
    </contour>
  </outline>
</glyph>
<glyph name="uni0420" format="2">
  <advance width="660"/>
  <unicode hex="0420"/>
  <outline>
    <contour>
      <point x="380" y="290" type="curve" smooth="yes"/>
      <point x="360" y="290"/>
      <point x="335" y="295"/>
      <point x="320" y="300" type="curve"/>
      <point x="320" y="340" type="line"/>
      <point x="460" y="320"/>
      <point x="510" y="411"/>
      <point x="510" y="510" type="curve" smooth="yes"/>
      <point x="510" y="601"/>
      <point x="460" y="660"/>
      <point x="350" y="660" type="curve" smooth="yes"/>
      <point x="300" y="660" type="line" smooth="yes"/>
      <point x="280" y="660"/>
      <point x="260" y="650"/>
      <point x="260" y="620" type="curve" smooth="yes"/>
      <point x="260" y="90" type="line" smooth="yes"/>
      <point x="260" y="70"/>
      <point x="270" y="55"/>
      <point x="290" y="50" type="curve" smooth="yes"/>
      <point x="370" y="30" type="line"/>
      <point x="370" y="0" type="line"/>
      <point x="40" y="0" type="line"/>
      <point x="40" y="30" type="line"/>
      <point x="120" y="50" type="line" smooth="yes"/>
      <point x="140" y="55"/>
      <point x="150" y="70"/>
      <point x="150" y="90" type="curve" smooth="yes"/>
      <point x="150" y="610" type="line" smooth="yes"/>
      <point x="150" y="630"/>
      <point x="140" y="645"/>
      <point x="120" y="650" type="curve" smooth="yes"/>
      <point x="40" y="670" type="line"/>
      <point x="40" y="700" type="line"/>
      <point x="380" y="700" type="line" smooth="yes"/>
      <point x="570" y="700"/>
      <point x="630" y="620"/>
      <point x="630" y="510" type="curve" smooth="yes"/>
      <point x="630" y="380"/>
      <point x="530" y="290"/>
    </contour>
  </outline>
</glyph>
<glyph name="uni0425" format="2">
  <advance width="776"/>
  <unicode hex="0425"/>
  <outline>
    <contour>
      <point x="695" y="660" type="line"/>
      <point x="622.17" y="645.722"/>
      <point x="583.819" y="609.308"/>
      <point x="549" y="560" type="curve" smooth="yes"/>
      <point x="420.195" y="377.598" type="line"/>
      <point x="593" y="127" type="line" smooth="yes"/>
      <point x="627.376" y="77.1494"/>
      <point x="663.832" y="44.6895"/>
      <point x="736" y="30" type="curve"/>
      <point x="736" y="0" type="line"/>
      <point x="429" y="0" type="line"/>
      <point x="429" y="30" type="line"/>
      <point x="474.632" y="39.2725"/>
      <point x="488.1" y="63.0605"/>
      <point x="483" y="88" type="curve" smooth="yes"/>
      <point x="479.992" y="102.709"/>
      <point x="471.052" y="119.702"/>
      <point x="458" y="138" type="curve" smooth="yes"/>
      <point x="353.982" y="283.833" type="line"/>
      <point x="251" y="138" type="line" smooth="yes"/>
      <point x="226.688" y="103.57"/>
      <point x="229.435" y="73.3545"/>
      <point x="258" y="54" type="curve" smooth="yes"/>
      <point x="270.395" y="45.6016"/>
      <point x="287.694" y="34.5244"/>
      <point x="310" y="30" type="curve"/>
      <point x="310" y="0" type="line"/>
      <point x="46" y="0" type="line"/>
      <point x="46" y="30" type="line"/>
      <point x="118.957" y="44.7891"/>
      <point x="149.756" y="87.6348"/>
      <point x="185" y="137" type="curve" smooth="yes"/>
      <point x="321.922" y="328.781" type="line"/>
      <point x="157" y="560" type="line" smooth="yes"/>
      <point x="122.087" y="608.948"/>
      <point x="82.8682" y="655.742"/>
      <point x="40" y="670" type="curve"/>
      <point x="40" y="700" type="line"/>
      <point x="341" y="700" type="line"/>
      <point x="342" y="670" type="line"/>
      <point x="291.945" y="660.063"/>
      <point x="274.73" y="624.416"/>
      <point x="281" y="593" type="curve" smooth="yes"/>
      <point x="283.756" y="579.188"/>
      <point x="291.536" y="564.175"/>
      <point x="302" y="549" type="curve" smooth="yes"/>
      <point x="389.035" y="422.784" type="line"/>
      <point x="487" y="560" type="line" smooth="yes"/>
      <point x="511.742" y="594.655"/>
      <point x="511.983" y="623.831"/>
      <point x="484" y="643" type="curve" smooth="yes"/>
      <point x="435" y="670" type="line"/>
      <point x="435" y="700" type="line"/>
      <point x="695" y="697" type="line"/>
    </contour>
  </outline>
</glyph>
<glyph name="uni042A" format="2">
  <advance width="818"/>
  <unicode hex="042A"/>
  <outline>
    <contour>
      <point x="370" y="354" type="line"/>
      <point x="370" y="80" type="line" smooth="yes"/>
      <point x="370" y="50"/>
      <point x="390" y="40"/>
      <point x="410" y="40" type="curve" smooth="yes"/>
      <point x="470" y="40" type="line" smooth="yes"/>
      <point x="560" y="40"/>
      <point x="630" y="100"/>
      <point x="630" y="200" type="curve" smooth="yes"/>
      <point x="630" y="280"/>
      <point x="573" y="354"/>
      <point x="460" y="354" type="curve" smooth="yes"/>
    </contour>
    <contour>
      <point x="370" y="610" type="curve" smooth="yes"/>
      <point x="370" y="394" type="line"/>
      <point x="460" y="394" type="line" smooth="yes"/>
      <point x="585" y="394"/>
      <point x="750" y="340"/>
      <point x="750" y="200" type="curve" smooth="yes"/>
      <point x="750" y="70"/>
      <point x="690" y="0"/>
      <point x="500" y="0" type="curve" smooth="yes"/>
      <point x="150" y="0" type="line"/>
      <point x="150" y="30" type="line"/>
      <point x="230" y="50" type="line" smooth="yes"/>
      <point x="250" y="55"/>
      <point x="260" y="70"/>
      <point x="260" y="90" type="curve" smooth="yes"/>
      <point x="260" y="610" type="line" smooth="yes"/>
      <point x="260" y="634.026"/>
      <point x="244.77" y="650"/>
      <point x="220" y="650" type="curve" smooth="yes"/>
      <point x="160" y="650"/>
      <point x="125" y="640"/>
      <point x="100" y="590" type="curve" smooth="yes"/>
      <point x="60" y="510" type="line"/>
      <point x="20" y="510" type="line"/>
      <point x="20" y="700" type="line"/>
      <point x="260" y="700" type="line"/>
      <point x="370" y="700" type="line"/>
      <point x="468" y="700" type="line"/>
      <point x="480" y="700" type="line"/>
      <point x="480" y="670" type="line"/>
      <point x="400" y="650" type="line" smooth="yes"/>
      <point x="380" y="645"/>
      <point x="370" y="630"/>
    </contour>
  </outline>
</glyph>
<glyph name="uni042D" format="2">
  <advance width="664"/>
  <unicode hex="042D"/>
  <outline>
    <contour>
      <point x="260.001" y="-15.001" type="line" smooth="yes"/>
      <point x="173.537" y="-15.001"/>
      <point x="100.363" y="12.707"/>
      <point x="40.001" y="58.999" type="curve"/>
      <point x="40.001" y="205.999" type="line"/>
      <point x="84.001" y="205.999" type="line"/>
      <point x="109.442" y="79.0371"/>
      <point x="183.714" y="24.999"/>
      <point x="257.001" y="24.999" type="curve" smooth="yes"/>
      <point x="267.001" y="24.999" type="line" smooth="yes"/>
      <point x="377.528" y="24.999"/>
      <point x="481.222" y="98.7786"/>
      <point x="500.724" y="295.423" type="curve"/>
      <point x="486.807" y="289.699"/>
      <point x="470.936" y="286.606"/>
      <point x="453.262" y="286.606" type="curve" smooth="yes"/>
      <point x="414.81" y="286.606"/>
      <point x="378.923" y="306.902"/>
      <point x="349.427" y="325.266" type="curve" smooth="yes"/>
      <point x="322.97" y="341.736"/>
      <point x="298.486" y="355.11"/>
      <point x="276.854" y="355.11" type="curve" smooth="yes"/>
      <point x="246.709" y="355.11"/>
      <point x="231.078" y="326.318"/>
      <point x="226.612" y="288.591" type="curve"/>
      <point x="198.701" y="288.59" type="line"/>
      <point x="201.177" y="370.002"/>
      <point x="242.026" y="414.68"/>
      <point x="312.584" y="414.68" type="curve" smooth="yes"/>
      <point x="352.2" y="414.68"/>
      <point x="389.337" y="393.941"/>
      <point x="422" y="373.966" type="curve" smooth="yes"/>
      <point x="446.934" y="358.717"/>
      <point x="469.971" y="346.175"/>
      <point x="488.99" y="346.175" type="curve" smooth="yes"/>
      <point x="494.315" y="346.175"/>
      <point x="499.265" y="346.977"/>
      <point x="503.831" y="348.562" type="curve"/>
      <point x="503.944" y="353.963"/>
      <point x="504.001" y="359.442"/>
      <point x="504.001" y="364.999" type="curve" smooth="yes"/>
      <point x="504.001" y="493.561"/>
      <point x="459.211" y="674.999"/>
      <point x="274.001" y="674.999" type="curve" smooth="yes"/>
      <point x="257.001" y="674.999" type="line" smooth="yes"/>
      <point x="183.714" y="674.999"/>
      <point x="109.442" y="620.961"/>
      <point x="84.001" y="493.999" type="curve"/>
      <point x="40.001" y="493.999" type="line"/>
      <point x="40.001" y="640.999" type="line"/>
      <point x="100.363" y="687.291"/>
      <point x="173.537" y="714.999"/>
      <point x="260.001" y="714.999" type="curve" smooth="yes"/>
      <point x="485.382" y="714.999"/>
      <point x="624.001" y="551.083"/>
      <point x="624.001" y="342.999" type="curve" smooth="yes"/>
      <point x="624.001" y="99.7549"/>
      <point x="448.513" y="-15.001"/>
      <point x="281.001" y="-15.001" type="curve" smooth="yes"/>
    </contour>
  </outline>
</glyph>
<glyph name="uni042F" format="2">
  <advance width="811"/>
  <unicode hex="042F"/>
  <outline>
    <contour>
      <point x="551" y="290" type="line"/>
      <point x="551" y="90" type="line" smooth="yes"/>
      <point x="551" y="70"/>
      <point x="541" y="55"/>
      <point x="521" y="50" type="curve" smooth="yes"/>
      <point x="441" y="30" type="line"/>
      <point x="441" y="0" type="line"/>
      <point x="771" y="0" type="line"/>
      <point x="771" y="30" type="line"/>
      <point x="691" y="50" type="line" smooth="yes"/>
      <point x="671" y="55"/>
      <point x="661" y="70"/>
      <point x="661" y="90" type="curve" smooth="yes"/>
      <point x="661" y="610" type="line" smooth="yes"/>
      <point x="661" y="630"/>
      <point x="671" y="645"/>
      <point x="691" y="650" type="curve" smooth="yes"/>
      <point x="771" y="670" type="line"/>
      <point x="771" y="700" type="line"/>
      <point x="431" y="700" type="line" smooth="yes"/>
      <point x="241" y="700"/>
      <point x="181" y="614.526"/>
      <point x="181" y="497" type="curve" smooth="yes"/>
      <point x="181" y="397.544"/>
      <point x="247.111" y="322.971"/>
      <point x="352.457" y="298.568" type="curve"/>
      <point x="165" y="88" type="line"/>
      <point x="120.349" y="55.6182"/>
      <point x="84.1914" y="30"/>
      <point x="40" y="30" type="curve"/>
      <point x="40" y="0" type="line"/>
      <point x="233" y="0" type="line" smooth="yes"/>
      <point x="246.407" y="0"/>
      <point x="274.269" y="28.3809"/>
      <point x="301" y="57" type="curve" smooth="yes"/>
      <point x="507" y="290" type="line"/>
    </contour>
    <contour>
      <point x="491" y="337" type="line"/>
      <point x="454" y="337" type="line" smooth="yes"/>
      <point x="342" y="337"/>
      <point x="301" y="414.015"/>
      <point x="301" y="497" type="curve" smooth="yes"/>
      <point x="301" y="595.887"/>
      <point x="351" y="660"/>
      <point x="461" y="660" type="curve" smooth="yes"/>
      <point x="511" y="660" type="line" smooth="yes"/>
      <point x="531" y="660"/>
      <point x="551" y="650"/>
      <point x="551" y="620" type="curve" smooth="yes"/>
      <point x="551" y="337" type="line"/>
    </contour>
  </outline>
</glyph>
<glyph name="uni0432" format="2">
  <advance width="518"/>
  <unicode hex="0432"/>
  <outline>
    <contour>
      <point x="281" y="0" type="line"/>
      <point x="41" y="0" type="line"/>
      <point x="41" y="25" type="line"/>
      <point x="91" y="35"/>
      <point x="111" y="55"/>
      <point x="111" y="95" type="curve" smooth="yes"/>
      <point x="111" y="100" type="line"/>
      <point x="111" y="156" type="line"/>
      <point x="111" y="335" type="line"/>
      <point x="111" y="380" type="line"/>
      <point x="111" y="385" type="line" smooth="yes"/>
      <point x="111" y="425"/>
      <point x="91" y="445"/>
      <point x="41" y="455" type="curve"/>
      <point x="41" y="480" type="line"/>
      <point x="274" y="480" type="line"/>
      <point x="281" y="480" type="line"/>
      <point x="281" y="479.929" type="line"/>
      <point x="386.076" y="477.794"/>
      <point x="459" y="427.564"/>
      <point x="459" y="357" type="curve" smooth="yes"/>
      <point x="459" y="312.134"/>
      <point x="436.102" y="273.134"/>
      <point x="380" y="250" type="curve"/>
      <point x="438.955" y="237.134"/>
      <point x="479" y="188.735"/>
      <point x="479" y="129" type="curve" smooth="yes"/>
      <point x="479" y="48.9072"/>
      <point x="405.078" y="0"/>
      <point x="287" y="0" type="curve" smooth="yes"/>
      <point x="285.012" y="0"/>
      <point x="283.011" y="0.0103572"/>
      <point x="281" y="0.0308838" type="curve" smooth="yes"/>
    </contour>
    <contour>
      <point x="228.47" y="47.5678" type="curve"/>
      <point x="243.457" y="42.56"/>
      <point x="260.322" y="40"/>
      <point x="279" y="40" type="curve" smooth="yes"/>
      <point x="331.176" y="40"/>
      <point x="369" y="78.4395"/>
      <point x="369" y="131" type="curve" smooth="yes"/>
      <point x="369" y="186"/>
      <point x="342.274" y="226"/>
      <point x="305" y="226" type="curve" smooth="yes"/>
      <point x="211" y="226" type="line"/>
      <point x="211" y="100" type="line"/>
      <point x="211" y="95" type="line" smooth="yes"/>
      <point x="211" y="74.2914"/>
      <point x="216.361" y="58.9431"/>
    </contour>
    <contour>
      <point x="211" y="271" type="line"/>
      <point x="303" y="271" type="line" smooth="yes"/>
      <point x="332.371" y="271"/>
      <point x="349" y="320.839"/>
      <point x="349" y="359" type="curve" smooth="yes"/>
      <point x="349" y="411.007"/>
      <point x="320.497" y="440"/>
      <point x="272" y="440" type="curve" smooth="yes"/>
      <point x="257.471" y="440"/>
      <point x="244.226" y="438.57"/>
      <point x="232.191" y="435.635" type="curve"/>
      <point x="217.453" y="423.988"/>
      <point x="211" y="407.72"/>
      <point x="211" y="385" type="curve" smooth="yes"/>
      <point x="211" y="380" type="line"/>
    </contour>
  </outline>
</glyph>
<glyph name="uni0433" format="2">
  <advance width="480"/>
  <unicode hex="0433"/>
  <anchor x="230" y="580" name="Anchor1"/>
  <anchor x="230" y="580" name="Anchor-1"/>
  <outline>
    <contour>
      <point x="280" y="0" type="line"/>
      <point x="40" y="0" type="line"/>
      <point x="40" y="25" type="line"/>
      <point x="90" y="35"/>
      <point x="110" y="55"/>
      <point x="110" y="95" type="curve" smooth="yes"/>
      <point x="110" y="385" type="line" smooth="yes"/>
      <point x="110" y="425"/>
      <point x="90" y="445"/>
      <point x="40" y="455" type="curve"/>
      <point x="40" y="480" type="line"/>
      <point x="110" y="480" type="line"/>
      <point x="210" y="480" type="line"/>
      <point x="440" y="480" type="line"/>
      <point x="440" y="320" type="line"/>
      <point x="400" y="320" type="line"/>
      <point x="380" y="400"/>
      <point x="360" y="440"/>
      <point x="271" y="440" type="curve" smooth="yes"/>
      <point x="210" y="440" type="line"/>
      <point x="210" y="385" type="line"/>
      <point x="210" y="95" type="line" smooth="yes"/>
      <point x="210" y="55"/>
      <point x="230" y="35"/>
      <point x="280" y="25" type="curve"/>
    </contour>
  </outline>
</glyph>
<glyph name="uni0438" format="2">
  <advance width="638"/>
  <unicode hex="0438"/>
  <outline>
    <contour>
      <point x="270" y="0" type="line"/>
      <point x="30" y="0" type="line"/>
      <point x="30" y="25" type="line"/>
      <point x="80" y="35"/>
      <point x="100" y="55"/>
      <point x="100" y="95" type="curve" smooth="yes"/>
      <point x="100" y="385" type="line" smooth="yes"/>
      <point x="100" y="425"/>
      <point x="80" y="445"/>
      <point x="30" y="455" type="curve"/>
      <point x="30" y="480" type="line"/>
      <point x="270" y="480" type="line"/>
      <point x="270" y="455" type="line"/>
      <point x="220" y="445"/>
      <point x="200" y="425"/>
      <point x="200" y="385" type="curve" smooth="yes"/>
      <point x="200" y="140" type="line"/>
      <point x="438" y="385" type="line"/>
      <point x="438" y="425"/>
      <point x="418" y="445"/>
      <point x="368" y="455" type="curve"/>
      <point x="368" y="480" type="line"/>
      <point x="608" y="480" type="line"/>
      <point x="608" y="455" type="line"/>
      <point x="558" y="445"/>
      <point x="538" y="425"/>
      <point x="538" y="385" type="curve" smooth="yes"/>
      <point x="538" y="95" type="line" smooth="yes"/>
      <point x="538" y="55"/>
      <point x="558" y="35"/>
      <point x="608" y="25" type="curve"/>
      <point x="608" y="0" type="line"/>
      <point x="368" y="0" type="line"/>
      <point x="368" y="25" type="line"/>
      <point x="418" y="35"/>
      <point x="438" y="55"/>
      <point x="438" y="95" type="curve" smooth="yes"/>
      <point x="438" y="340" type="line"/>
      <point x="200" y="95" type="line"/>
      <point x="200" y="55"/>
      <point x="220" y="35"/>
      <point x="270" y="25" type="curve"/>
    </contour>
  </outline>
</glyph>
<glyph name="uni0439" format="2">
  <advance width="638"/>
  <unicode hex="0439"/>
  <outline>
    <contour>
      <point x="270" y="-0.000976562" type="line"/>
      <point x="30" y="-0.000976562" type="line"/>
      <point x="30" y="24.999" type="line"/>
      <point x="80" y="34.999"/>
      <point x="100" y="54.999"/>
      <point x="100" y="94.999" type="curve" smooth="yes"/>
      <point x="100" y="384.999" type="line" smooth="yes"/>
      <point x="100" y="424.999"/>
      <point x="80" y="444.999"/>
      <point x="30" y="454.999" type="curve"/>
      <point x="30" y="479.999" type="line"/>
      <point x="270" y="479.999" type="line"/>
      <point x="270" y="454.999" type="line"/>
      <point x="220" y="444.999"/>
      <point x="200" y="424.999"/>
      <point x="200" y="384.999" type="curve" smooth="yes"/>
      <point x="200" y="139.999" type="line"/>
      <point x="438" y="384.999" type="line"/>
      <point x="438" y="424.999"/>
      <point x="418" y="444.999"/>
      <point x="368" y="454.999" type="curve"/>
      <point x="368" y="479.999" type="line"/>
      <point x="608" y="479.999" type="line"/>
      <point x="608" y="454.999" type="line"/>
      <point x="558" y="444.999"/>
      <point x="538" y="424.999"/>
      <point x="538" y="384.999" type="curve" smooth="yes"/>
      <point x="538" y="94.999" type="line" smooth="yes"/>
      <point x="538" y="54.999"/>
      <point x="558" y="34.999"/>
      <point x="608" y="24.999" type="curve"/>
      <point x="608" y="-0.000976562" type="line"/>
      <point x="368" y="-0.000976562" type="line"/>
      <point x="368" y="24.999" type="line"/>
      <point x="418" y="34.999"/>
      <point x="438" y="54.999"/>
      <point x="438" y="94.999" type="curve" smooth="yes"/>
      <point x="438" y="339.999" type="line"/>
      <point x="200" y="94.999" type="line"/>
      <point x="200" y="54.999"/>
      <point x="220" y="34.999"/>
      <point x="270" y="24.999" type="curve"/>
    </contour>
    <contour>
      <point x="378.12" y="621" type="curve" smooth="yes"/>
      <point x="378.12" y="634.389"/>
      <point x="364.959" y="648.837"/>
      <point x="364.959" y="667" type="curve" smooth="yes"/>
      <point x="364.959" y="697.526"/>
      <point x="390.606" y="706.3"/>
      <point x="408.199" y="706.3" type="curve" smooth="yes"/>
      <point x="440.1" y="706.3"/>
      <point x="466.5" y="689.899"/>
      <point x="466.5" y="648" type="curve" smooth="yes"/>
      <point x="466.5" y="585.439"/>
      <point x="388.321" y="560"/>
      <point x="312" y="560" type="curve" smooth="yes"/>
      <point x="236.737" y="560"/>
      <point x="160.699" y="586.79"/>
      <point x="160.699" y="648" type="curve" smooth="yes"/>
      <point x="160.699" y="689.899"/>
      <point x="187.1" y="706.3"/>
      <point x="219" y="706.3" type="curve" smooth="yes"/>
      <point x="237.166" y="706.3"/>
      <point x="262.356" y="698.027"/>
      <point x="262.356" y="667" type="curve" smooth="yes"/>
      <point x="262.356" y="646.93"/>
      <point x="248.51" y="633.962"/>
      <point x="248.51" y="619" type="curve" smooth="yes"/>
      <point x="248.51" y="603.878"/>
      <point x="270.783" y="588"/>
      <point x="312" y="588" type="curve" smooth="yes"/>
      <point x="354.558" y="588"/>
      <point x="378.12" y="604.884"/>
    </contour>
  </outline>
</glyph>
<glyph name="uni043F" format="2">
  <advance width="618"/>
  <unicode hex="043F"/>
  <outline>
    <contour>
      <point x="270" y="0" type="line"/>
      <point x="30" y="0" type="line"/>
      <point x="30" y="25" type="line"/>
      <point x="80" y="35"/>
      <point x="100" y="55"/>
      <point x="100" y="95" type="curve" smooth="yes"/>
      <point x="100" y="385" type="line" smooth="yes"/>
      <point x="100" y="425"/>
      <point x="80" y="445"/>
      <point x="30" y="455" type="curve"/>
      <point x="30" y="480" type="line"/>
      <point x="162" y="480" type="line"/>
      <point x="270" y="480" type="line"/>
      <point x="348" y="480" type="line"/>
      <point x="460" y="480" type="line"/>
      <point x="588" y="480" type="line"/>
      <point x="588" y="455" type="line"/>
      <point x="538" y="445"/>
      <point x="518" y="425"/>
      <point x="518" y="385" type="curve" smooth="yes"/>
      <point x="518" y="95" type="line" smooth="yes"/>
      <point x="518" y="55"/>
      <point x="538" y="35"/>
      <point x="588" y="25" type="curve"/>
      <point x="588" y="0" type="line"/>
      <point x="348" y="0" type="line"/>
      <point x="348" y="25" type="line"/>
      <point x="398" y="35"/>
      <point x="418" y="55"/>
      <point x="418" y="95" type="curve" smooth="yes"/>
      <point x="418" y="385" type="line" smooth="yes"/>
      <point x="418" y="407.31"/>
      <point x="411.778" y="423.398"/>
      <point x="397.6" y="435" type="curve"/>
      <point x="220.4" y="435" type="line"/>
      <point x="206.222" y="423.398"/>
      <point x="200" y="407.31"/>
      <point x="200" y="385" type="curve" smooth="yes"/>
      <point x="200" y="95" type="line" smooth="yes"/>
      <point x="200" y="55"/>
      <point x="220" y="35"/>
      <point x="270" y="25" type="curve"/>
    </contour>
  </outline>
</glyph>
<glyph name="uni0440" format="2">
  <advance width="575"/>
  <unicode hex="0440"/>
  <outline>
    <contour>
      <point x="171" y="498" type="line"/>
      <point x="171" y="420" type="line"/>
      <point x="181" y="420" type="line"/>
      <point x="211" y="460"/>
      <point x="256" y="500"/>
      <point x="331" y="500" type="curve" smooth="yes"/>
      <point x="481" y="500"/>
      <point x="536" y="380"/>
      <point x="536" y="250" type="curve" smooth="yes"/>
      <point x="536" y="110"/>
      <point x="451" y="-20"/>
      <point x="301" y="-20" type="curve" smooth="yes"/>
      <point x="237" y="-20"/>
      <point x="191" y="1.84961"/>
      <point x="171" y="18" type="curve"/>
      <point x="161" y="13" type="line"/>
      <point x="167.919" y="-10.0801"/>
      <point x="171" y="-34"/>
      <point x="171" y="-62" type="curve" smooth="yes"/>
      <point x="171" y="-120" type="line" smooth="yes"/>
      <point x="171" y="-160"/>
      <point x="191" y="-180"/>
      <point x="241" y="-190" type="curve"/>
      <point x="241" y="-220" type="line"/>
      <point x="171" y="-220" type="line"/>
      <point x="71" y="-220" type="line"/>
      <point x="1" y="-220" type="line"/>
      <point x="1" y="-190" type="line"/>
      <point x="51" y="-180"/>
      <point x="71" y="-160"/>
      <point x="71" y="-120" type="curve" smooth="yes"/>
      <point x="71" y="398" type="line" smooth="yes"/>
      <point x="71" y="413"/>
      <point x="61" y="418"/>
      <point x="51" y="423" type="curve" smooth="yes"/>
      <point x="11" y="443" type="line"/>
      <point x="11" y="468" type="line"/>
      <point x="111" y="498" type="line"/>
    </contour>
    <contour>
      <point x="281" y="25" type="curve" smooth="yes"/>
      <point x="351" y="25"/>
      <point x="426" y="60"/>
      <point x="426" y="240" type="curve" smooth="yes"/>
      <point x="426" y="340"/>
      <point x="381" y="430"/>
      <point x="271" y="430" type="curve" smooth="yes"/>
      <point x="201" y="430"/>
      <point x="171" y="380"/>
      <point x="171" y="290" type="curve" smooth="yes"/>
      <point x="171" y="140" type="line" smooth="yes"/>
      <point x="171" y="90"/>
      <point x="191" y="25"/>
    </contour>
  </outline>
</glyph>
<glyph name="uni0444" format="2">
  <advance width="910"/>
  <unicode hex="0444"/>
  <outline>
    <contour>
      <point x="615" y="25" type="curve" smooth="yes"/>
      <point x="685" y="25"/>
      <point x="760" y="58.3721"/>
      <point x="760" y="230" type="curve" smooth="yes"/>
      <point x="760" y="348.421"/>
      <point x="715" y="455"/>
      <point x="605" y="455" type="curve" smooth="yes"/>
      <point x="535" y="455"/>
      <point x="505" y="421.071"/>
      <point x="505" y="360" type="curve" smooth="yes"/>
      <point x="505" y="90" type="line" smooth="yes"/>
      <point x="505" y="61.7393"/>
      <point x="525" y="25"/>
    </contour>
    <contour>
      <point x="405" y="-120" type="curve" smooth="yes"/>
      <point x="405" y="-62" type="line"/>
      <point x="405" y="18" type="line"/>
      <point x="385" y="1.84961"/>
      <point x="339" y="-20"/>
      <point x="275" y="-20" type="curve" smooth="yes"/>
      <point x="125" y="-20"/>
      <point x="40" y="105.186"/>
      <point x="40" y="240" type="curve" smooth="yes"/>
      <point x="40" y="375.2"/>
      <point x="103.049" y="500"/>
      <point x="275" y="500" type="curve" smooth="yes"/>
      <point x="335" y="500"/>
      <point x="371" y="480"/>
      <point x="395" y="460" type="curve"/>
      <point x="405" y="460" type="line"/>
      <point x="405" y="498" type="line"/>
      <point x="405" y="660" type="line"/>
      <point x="345" y="690" type="line"/>
      <point x="345" y="710" type="line"/>
      <point x="475" y="750" type="line"/>
      <point x="505" y="740" type="line"/>
      <point x="505" y="498" type="line"/>
      <point x="505" y="460" type="line"/>
      <point x="515" y="460" type="line"/>
      <point x="539" y="480"/>
      <point x="575" y="500"/>
      <point x="635" y="500" type="curve" smooth="yes"/>
      <point x="806.951" y="500"/>
      <point x="870" y="375.2"/>
      <point x="870" y="240" type="curve" smooth="yes"/>
      <point x="870" y="105.186"/>
      <point x="785" y="-20"/>
      <point x="635" y="-20" type="curve" smooth="yes"/>
      <point x="571" y="-20"/>
      <point x="525" y="1.84961"/>
      <point x="505" y="18" type="curve"/>
      <point x="505" y="-62" type="line"/>
      <point x="505" y="-120" type="line" smooth="yes"/>
      <point x="505" y="-160"/>
      <point x="525" y="-180"/>
      <point x="575" y="-190" type="curve"/>
      <point x="575" y="-220" type="line"/>
      <point x="505" y="-220" type="line"/>
      <point x="405" y="-220" type="line"/>
      <point x="335" y="-220" type="line"/>
      <point x="335" y="-190" type="line"/>
      <point x="385" y="-180"/>
      <point x="405" y="-160"/>
    </contour>
    <contour>
      <point x="405" y="90" type="curve" smooth="yes"/>
      <point x="405" y="360" type="line" smooth="yes"/>
      <point x="405" y="421.071"/>
      <point x="375" y="455"/>
      <point x="305" y="455" type="curve" smooth="yes"/>
      <point x="195" y="455"/>
      <point x="150" y="348.421"/>
      <point x="150" y="230" type="curve" smooth="yes"/>
      <point x="150" y="58.3721"/>
      <point x="225" y="25"/>
      <point x="295" y="25" type="curve" smooth="yes"/>
      <point x="385" y="25"/>
      <point x="405" y="61.7393"/>
    </contour>
  </outline>
</glyph>
<glyph name="uni0446" format="2">
  <advance width="635"/>
  <unicode hex="0446"/>
  <outline>
    <contour>
      <point x="338" y="449.999" type="curve"/>
      <point x="338" y="479.999" type="line"/>
      <point x="578" y="479.999" type="line"/>
      <point x="578" y="449.999" type="line"/>
      <point x="528" y="439.999"/>
      <point x="508" y="419.999"/>
      <point x="508" y="379.999" type="curve" smooth="yes"/>
      <point x="508" y="69.999" type="line"/>
      <point x="508" y="39.999" type="line"/>
      <point x="605" y="39.999" type="line"/>
      <point x="605" y="-160.001" type="line"/>
      <point x="565" y="-160.001" type="line"/>
      <point x="545" y="-53.334"/>
      <point x="525" y="-0.000976562"/>
      <point x="436" y="-0.000976562" type="curve" smooth="yes"/>
      <point x="325" y="-0.000976562" type="line"/>
      <point x="325" y="-0.000538545" type="line"/>
      <point x="250" y="-0.000538545"/>
      <point x="175" y="0"/>
      <point x="100" y="0" type="curve" smooth="yes"/>
      <point x="30" y="0" type="line"/>
      <point x="30" y="25" type="line"/>
      <point x="80" y="35"/>
      <point x="100" y="55"/>
      <point x="100" y="95" type="curve" smooth="yes"/>
      <point x="100" y="100" type="line"/>
      <point x="100" y="380" type="line" smooth="yes"/>
      <point x="100" y="420"/>
      <point x="80" y="440"/>
      <point x="30" y="450" type="curve"/>
      <point x="30" y="480" type="line"/>
      <point x="270" y="480" type="line"/>
      <point x="270" y="450" type="line"/>
      <point x="220" y="440"/>
      <point x="200" y="420"/>
      <point x="200" y="380" type="curve" smooth="yes"/>
      <point x="200" y="100" type="line"/>
      <point x="200" y="40" type="line"/>
      <point x="408" y="39.999" type="line"/>
      <point x="408" y="379.999" type="line" smooth="yes"/>
      <point x="408" y="419.999"/>
      <point x="388" y="439.999"/>
    </contour>
  </outline>
</glyph>
<glyph name="uni0447" format="2">
  <advance width="625"/>
  <unicode hex="0447"/>
  <outline>
    <contour>
      <point x="280" y="480" type="line"/>
      <point x="280" y="455" type="line"/>
      <point x="230" y="445"/>
      <point x="210" y="424.999"/>
      <point x="210" y="385" type="curve" smooth="yes"/>
      <point x="210" y="380" type="line"/>
      <point x="210" y="300" type="line" smooth="yes"/>
      <point x="210" y="235"/>
      <point x="245" y="200"/>
      <point x="310" y="200" type="curve" smooth="yes"/>
      <point x="367.75" y="200"/>
      <point x="415" y="235"/>
      <point x="415" y="300" type="curve" smooth="yes"/>
      <point x="415" y="380" type="line" smooth="yes"/>
      <point x="415" y="389.402"/>
      <point x="414.367" y="397.494"/>
      <point x="413.045" y="404.503" type="curve" smooth="yes"/>
      <point x="407.566" y="428.983"/>
      <point x="390.247" y="443.557"/>
      <point x="357.081" y="452.234" type="curve" smooth="yes"/>
      <point x="353.266" y="453.177"/>
      <point x="349.241" y="454.091"/>
      <point x="345" y="455" type="curve"/>
      <point x="345" y="480" type="line"/>
      <point x="515" y="480" type="line"/>
      <point x="585" y="480" type="line"/>
      <point x="585" y="455" type="line"/>
      <point x="535" y="445"/>
      <point x="515" y="424.999"/>
      <point x="515" y="385" type="curve" smooth="yes"/>
      <point x="515" y="380" type="line"/>
      <point x="515" y="100" type="line"/>
      <point x="515" y="95" type="line" smooth="yes"/>
      <point x="515" y="55.001"/>
      <point x="535" y="35"/>
      <point x="585" y="25" type="curve"/>
      <point x="585" y="0" type="line"/>
      <point x="515" y="0" type="line"/>
      <point x="415" y="0" type="line"/>
      <point x="345" y="0" type="line"/>
      <point x="345" y="25" type="line"/>
      <point x="395" y="35"/>
      <point x="415" y="55"/>
      <point x="415" y="95" type="curve" smooth="yes"/>
      <point x="415" y="100" type="line"/>
      <point x="415" y="210" type="line"/>
      <point x="380" y="160"/>
      <point x="320" y="140"/>
      <point x="270" y="140" type="curve" smooth="yes"/>
      <point x="170" y="140"/>
      <point x="110" y="200"/>
      <point x="110" y="290" type="curve" smooth="yes"/>
      <point x="110" y="380" type="line" smooth="yes"/>
      <point x="110" y="420"/>
      <point x="90" y="440"/>
      <point x="40" y="450" type="curve"/>
      <point x="40" y="455" type="line"/>
      <point x="40" y="480" type="line"/>
      <point x="210" y="480" type="line"/>
    </contour>
  </outline>
</glyph>
<glyph name="uni0449" format="2">
  <advance width="961"/>
  <unicode hex="0449"/>
  <outline>
    <contour>
      <point x="630" y="450" type="curve"/>
      <point x="630" y="480" type="line"/>
      <point x="870" y="480" type="line"/>
      <point x="870" y="450" type="line"/>
      <point x="820" y="440"/>
      <point x="800" y="420"/>
      <point x="800" y="380" type="curve" smooth="yes"/>
      <point x="800" y="70" type="line"/>
      <point x="800" y="40" type="line"/>
      <point x="897" y="40" type="line"/>
      <point x="897" y="-160" type="line"/>
      <point x="857" y="-160" type="line"/>
      <point x="837" y="-53.333"/>
      <point x="817" y="0"/>
      <point x="728" y="0" type="curve" smooth="yes"/>
      <point x="617" y="0" type="line"/>
      <point x="200" y="0" type="line"/>
      <point x="100" y="0" type="line"/>
      <point x="30" y="0" type="line"/>
      <point x="30" y="25" type="line"/>
      <point x="80" y="35"/>
      <point x="100" y="55"/>
      <point x="100" y="95" type="curve" smooth="yes"/>
      <point x="100" y="100" type="line"/>
      <point x="100" y="380" type="line" smooth="yes"/>
      <point x="100" y="420"/>
      <point x="80" y="440"/>
      <point x="30" y="450" type="curve"/>
      <point x="30" y="480" type="line"/>
      <point x="270" y="480" type="line"/>
      <point x="270" y="450" type="line"/>
      <point x="220" y="440"/>
      <point x="200" y="420"/>
      <point x="200" y="380" type="curve" smooth="yes"/>
      <point x="200" y="100" type="line"/>
      <point x="200" y="40" type="line"/>
      <point x="400" y="40" type="line"/>
      <point x="400" y="380" type="line" smooth="yes"/>
      <point x="400" y="420"/>
      <point x="380" y="440"/>
      <point x="330" y="450" type="curve"/>
      <point x="330" y="480" type="line"/>
      <point x="570" y="480" type="line"/>
      <point x="570" y="450" type="line"/>
      <point x="520" y="440"/>
      <point x="500" y="420"/>
      <point x="500" y="380" type="curve" smooth="yes"/>
      <point x="500" y="40" type="line"/>
      <point x="617" y="40" type="line"/>
      <point x="700" y="40" type="line"/>
      <point x="700" y="380" type="line" smooth="yes"/>
      <point x="700" y="420"/>
      <point x="680" y="440"/>
    </contour>
  </outline>
</glyph>
<glyph name="uni044A" format="2">
  <advance width="620"/>
  <unicode hex="044A"/>
  <outline>
    <contour>
      <point x="390.554" y="45" type="line" smooth="yes"/>
      <point x="432.554" y="45"/>
      <point x="480" y="62.0928"/>
      <point x="480" y="150" type="curve" smooth="yes"/>
      <point x="480" y="202.631"/>
      <point x="456.554" y="250"/>
      <point x="390.554" y="250" type="curve" smooth="yes"/>
      <point x="282.554" y="250" type="line"/>
      <point x="282.554" y="100" type="line"/>
      <point x="282.554" y="95" type="line" smooth="yes"/>
      <point x="282.554" y="72.6903"/>
      <point x="288.776" y="56.6019"/>
      <point x="302.954" y="45" type="curve"/>
    </contour>
    <contour>
      <point x="352.554" y="480" type="line"/>
      <point x="352.554" y="455" type="line"/>
      <point x="302.695" y="445.028"/>
      <point x="282.667" y="425.112"/>
      <point x="282.554" y="385.338" type="curve" smooth="yes"/>
      <point x="282.554" y="355.225"/>
      <point x="282.554" y="325.113"/>
      <point x="282.554" y="295" type="curve"/>
      <point x="385.554" y="295" type="line" smooth="yes"/>
      <point x="535.554" y="295"/>
      <point x="590" y="230.2"/>
      <point x="590" y="160" type="curve" smooth="yes"/>
      <point x="590" y="77.0371"/>
      <point x="527.256" y="0"/>
      <point x="415.554" y="0" type="curve" smooth="yes"/>
      <point x="352.554" y="0" type="line"/>
      <point x="182.554" y="0" type="line"/>
      <point x="112.554" y="0" type="line"/>
      <point x="112.554" y="25" type="line"/>
      <point x="162.554" y="35"/>
      <point x="182.554" y="55"/>
      <point x="182.554" y="95" type="curve" smooth="yes"/>
      <point x="182.554" y="100" type="line"/>
      <point x="182.554" y="100" type="line"/>
      <point x="182.554" y="193.333"/>
      <point x="182.554" y="286.667"/>
      <point x="182.554" y="380" type="curve"/>
      <point x="182.554" y="380" type="line"/>
      <point x="182.554" y="385" type="line" smooth="yes"/>
      <point x="182.554" y="403.162"/>
      <point x="182.554" y="421.324"/>
      <point x="182.554" y="439.486" type="curve"/>
      <point x="108.187" y="434.594"/>
      <point x="88.6913" y="394.765"/>
      <point x="70" y="320" type="curve"/>
      <point x="30" y="320" type="line"/>
      <point x="30" y="480" type="line"/>
      <point x="182.555" y="480" type="line"/>
      <point x="282.554" y="480" type="line"/>
      <point x="282.555" y="480" type="line"/>
    </contour>
  </outline>
</glyph>
<glyph name="uni044F" format="2">
  <advance width="558"/>
  <unicode hex="044F"/>
  <outline>
    <contour>
      <point x="294" y="226" type="line" smooth="yes"/>
      <point x="255.561" y="226"/>
      <point x="233.496" y="152.16"/>
      <point x="227.999" y="132" type="curve" smooth="yes"/>
      <point x="211.521" y="71.5664"/>
      <point x="180.93" y="1"/>
      <point x="141.999" y="1" type="curve" smooth="yes"/>
      <point x="29.999" y="0" type="line"/>
      <point x="29.999" y="25" type="line"/>
      <point x="84.1182" y="25"/>
      <point x="87.7852" y="65.6494"/>
      <point x="117.999" y="129" type="curve" smooth="yes"/>
      <point x="129.348" y="152.795"/>
      <point x="158.854" y="237.134"/>
      <point x="219" y="250" type="curve"/>
      <point x="141.594" y="273.134"/>
      <point x="110" y="312.134"/>
      <point x="110" y="357" type="curve" smooth="yes"/>
      <point x="110" y="427.564"/>
      <point x="182.924" y="477.794"/>
      <point x="288" y="479.929" type="curve"/>
      <point x="288" y="480" type="line"/>
      <point x="295" y="480" type="line"/>
      <point x="528" y="480" type="line"/>
      <point x="528" y="455" type="line"/>
      <point x="478" y="445"/>
      <point x="458" y="425"/>
      <point x="458" y="385" type="curve" smooth="yes"/>
      <point x="458" y="380" type="line"/>
      <point x="458" y="335" type="line"/>
      <point x="458" y="100" type="line"/>
      <point x="458" y="95" type="line" smooth="yes"/>
      <point x="458" y="55"/>
      <point x="478" y="35"/>
      <point x="528" y="25" type="curve"/>
      <point x="528" y="0" type="line"/>
      <point x="288" y="0" type="line"/>
      <point x="288" y="25" type="line"/>
      <point x="338" y="35"/>
      <point x="358" y="55.001"/>
      <point x="358" y="95" type="curve" smooth="yes"/>
      <point x="358" y="100" type="line"/>
      <point x="358" y="226" type="line"/>
    </contour>
    <contour>
      <point x="358" y="271" type="line"/>
      <point x="358" y="380" type="line"/>
      <point x="358" y="385" type="line" smooth="yes"/>
      <point x="358" y="407.72"/>
      <point x="351.547" y="423.988"/>
      <point x="336.809" y="435.635" type="curve"/>
      <point x="324.774" y="438.57"/>
      <point x="311.529" y="440"/>
      <point x="297" y="440" type="curve" smooth="yes"/>
      <point x="248.503" y="440"/>
      <point x="220" y="411.007"/>
      <point x="220" y="359" type="curve" smooth="yes"/>
      <point x="220" y="305"/>
      <point x="242" y="271"/>
      <point x="306" y="271" type="curve" smooth="yes"/>
    </contour>
  </outline>
</glyph>
<glyph name="uni0456" format="2">
  <advance width="290"/>
  <unicode hex="0456"/>
  <outline>
    <contour>
      <point x="145" y="635" type="curve" smooth="yes"/>
      <point x="105" y="635"/>
      <point x="80" y="665"/>
      <point x="80" y="700" type="curve" smooth="yes"/>
      <point x="80" y="735"/>
      <point x="105" y="765"/>
      <point x="145" y="765" type="curve" smooth="yes"/>
      <point x="185" y="765"/>
      <point x="210" y="735"/>
      <point x="210" y="700" type="curve" smooth="yes"/>
      <point x="210" y="665"/>
      <point x="185" y="635"/>
    </contour>
    <contour>
      <point x="270" y="0" type="line"/>
      <point x="30" y="0" type="line"/>
      <point x="30" y="25" type="line"/>
      <point x="80" y="35"/>
      <point x="100" y="55"/>
      <point x="100" y="95" type="curve" smooth="yes"/>
      <point x="100" y="400" type="line"/>
      <point x="40" y="430" type="line"/>
      <point x="40" y="450" type="line"/>
      <point x="170" y="500" type="line"/>
      <point x="200" y="490" type="line"/>
      <point x="200" y="95" type="line" smooth="yes"/>
      <point x="200" y="55"/>
      <point x="220" y="35"/>
      <point x="270" y="25" type="curve"/>
    </contour>
  </outline>
</glyph>
<glyph name="uni0458" format="2">
  <advance width="245"/>
  <unicode hex="0458"/>
  <outline>
    <contour>
      <point x="185" y="490" type="line"/>
      <point x="185" y="30" type="line" smooth="yes"/>
      <point x="185" y="-50"/>
      <point x="130" y="-115"/>
      <point x="30" y="-185" type="curve"/>
      <point x="10" y="-165" type="line"/>
      <point x="80" y="-75"/>
      <point x="85" y="-5"/>
      <point x="85" y="75" type="curve" smooth="yes"/>
      <point x="85" y="400" type="line"/>
      <point x="25" y="430" type="line"/>
      <point x="25" y="450" type="line"/>
      <point x="155" y="500" type="line"/>
    </contour>
    <contour>
      <point x="130" y="635" type="curve" smooth="yes"/>
      <point x="90" y="635"/>
      <point x="65" y="665"/>
      <point x="65" y="700" type="curve" smooth="yes"/>
      <point x="65" y="735"/>
      <point x="90" y="765"/>
      <point x="130" y="765" type="curve" smooth="yes"/>
      <point x="170" y="765"/>
      <point x="195" y="735"/>
      <point x="195" y="700" type="curve" smooth="yes"/>
      <point x="195" y="665"/>
      <point x="170" y="635"/>
    </contour>
  </outline>
</glyph>
<glyph name="uni045B" format="2">
  <advance width="575"/>
  <unicode hex="045B"/>
  <outline>
    <contour>
      <point x="265" y="25" type="curve"/>
      <point x="265" y="0" type="line"/>
      <point x="25" y="0" type="line"/>
      <point x="25" y="25" type="line"/>
      <point x="75" y="35"/>
      <point x="95" y="55"/>
      <point x="95" y="95" type="curve" smooth="yes"/>
      <point x="95" y="550" type="line"/>
      <point x="20" y="550" type="line"/>
      <point x="20" y="620" type="line"/>
      <point x="95" y="620" type="line"/>
      <point x="95" y="660" type="line"/>
      <point x="35" y="690" type="line"/>
      <point x="35" y="710" type="line"/>
      <point x="165" y="750" type="line"/>
      <point x="195" y="740" type="line"/>
      <point x="195" y="620" type="line"/>
      <point x="338" y="620" type="line"/>
      <point x="338" y="550" type="line"/>
      <point x="195" y="550" type="line"/>
      <point x="195" y="420" type="line"/>
      <point x="225" y="460"/>
      <point x="275" y="490"/>
      <point x="335" y="490" type="curve" smooth="yes"/>
      <point x="435" y="490"/>
      <point x="495" y="440"/>
      <point x="495" y="330" type="curve" smooth="yes"/>
      <point x="495" y="95" type="line" smooth="yes"/>
      <point x="495" y="55"/>
      <point x="515" y="35"/>
      <point x="565" y="25" type="curve"/>
      <point x="565" y="0" type="line"/>
      <point x="325" y="0" type="line"/>
      <point x="325" y="25" type="line"/>
      <point x="375" y="35"/>
      <point x="395" y="55"/>
      <point x="395" y="95" type="curve" smooth="yes"/>
      <point x="395" y="330" type="line" smooth="yes"/>
      <point x="395" y="390"/>
      <point x="360" y="430"/>
      <point x="295" y="430" type="curve" smooth="yes"/>
      <point x="240" y="430"/>
      <point x="195" y="390"/>
      <point x="195" y="330" type="curve" smooth="yes"/>
      <point x="195" y="95" type="line" smooth="yes"/>
      <point x="195" y="55"/>
      <point x="215" y="35"/>
    </contour>
  </outline>
</glyph>
<glyph name="uni045C" format="2">
  <advance width="555"/>
  <unicode hex="045C"/>
  <outline>
    <contour>
      <point x="260" y="30" type="curve"/>
      <point x="260" y="0" type="line"/>
      <point x="20" y="0" type="line"/>
      <point x="20" y="30" type="line"/>
      <point x="70" y="35"/>
      <point x="90" y="60"/>
      <point x="90" y="100" type="curve" smooth="yes"/>
      <point x="90" y="385" type="line" smooth="yes"/>
      <point x="90" y="425"/>
      <point x="70" y="445"/>
      <point x="20" y="455" type="curve"/>
      <point x="20" y="480" type="line"/>
      <point x="260" y="480" type="line"/>
      <point x="260" y="455" type="line"/>
      <point x="210" y="445"/>
      <point x="190" y="425"/>
      <point x="190" y="385" type="curve" smooth="yes"/>
      <point x="190" y="266" type="line"/>
      <point x="219" y="266" type="line" smooth="yes"/>
      <point x="245.754" y="267.102"/>
      <point x="271.205" y="318.066"/>
      <point x="277.556" y="331" type="curve" smooth="yes"/>
      <point x="308" y="393"/>
      <point x="362" y="491"/>
      <point x="426" y="491" type="curve" smooth="yes"/>
      <point x="504.168" y="491"/>
      <point x="528" y="432"/>
      <point x="528" y="381" type="curve" smooth="yes"/>
      <point x="528" y="354"/>
      <point x="518" y="326.587"/>
      <point x="487" y="326.587" type="curve" smooth="yes"/>
      <point x="469.518" y="326.587"/>
      <point x="446.586" y="335.051"/>
      <point x="418" y="356" type="curve"/>
      <point x="438.308" y="369.908"/>
      <point x="418.923" y="403"/>
      <point x="394" y="403" type="curve" smooth="yes"/>
      <point x="362.709" y="403"/>
      <point x="338.65" y="371.48"/>
      <point x="318" y="328" type="curve" smooth="yes"/>
      <point x="305.32" y="301.303"/>
      <point x="293.442" y="278.263"/>
      <point x="261" y="254" type="curve"/>
      <point x="355.068" y="254"/>
      <point x="421" y="178"/>
      <point x="449" y="91.9121" type="curve"/>
      <point x="453.923" y="55.6572"/>
      <point x="480" y="33.4092"/>
      <point x="504" y="33.4092" type="curve" smooth="yes"/>
      <point x="520.164" y="33.4092"/>
      <point x="536.924" y="39.8467"/>
      <point x="550" y="56" type="curve"/>
      <point x="570" y="26" type="line"/>
      <point x="542.905" y="9.03418"/>
      <point x="522" y="-19"/>
      <point x="487" y="-19" type="curve" smooth="yes"/>
      <point x="442.383" y="-19"/>
      <point x="402.812" y="0.961914"/>
      <point x="376" y="40" type="curve" smooth="yes"/>
      <point x="325.177" y="114"/>
      <point x="304" y="226"/>
      <point x="232" y="226" type="curve" smooth="yes"/>
      <point x="190" y="226" type="line"/>
      <point x="190" y="100" type="line" smooth="yes"/>
      <point x="190" y="60"/>
      <point x="210" y="35"/>
    </contour>
    <contour>
      <point x="400" y="730" type="line"/>
      <point x="260" y="560" type="line"/>
      <point x="230" y="560" type="line"/>
      <point x="280" y="730" type="line"/>
    </contour>
  </outline>
</glyph>
<glyph name="quoteleft" format="2">
  <advance width="230"/>
  <unicode hex="2018"/>
  <outline>
    <contour>
      <point x="140" y="745" type="curve"/>
      <point x="160" y="715" type="line"/>
      <point x="120" y="695"/>
      <point x="90" y="655"/>
      <point x="90" y="625" type="curve" smooth="yes"/>
      <point x="90" y="605"/>
      <point x="100" y="595"/>
      <point x="115" y="595" type="curve" smooth="yes"/>
      <point x="155" y="595"/>
      <point x="180" y="560"/>
      <point x="180" y="525" type="curve" smooth="yes"/>
      <point x="180" y="490"/>
      <point x="155" y="460"/>
      <point x="115" y="460" type="curve" smooth="yes"/>
      <point x="50" y="460"/>
      <point x="30" y="515"/>
      <point x="30" y="545" type="curve" smooth="yes"/>
      <point x="30" y="615"/>
      <point x="40" y="695"/>
    </contour>
  </outline>
</glyph>
<glyph name="quoteright" format="2">
  <advance width="230"/>
  <unicode hex="2019"/>
  <outline>
    <contour>
      <point x="90" y="480" type="curve"/>
      <point x="70" y="510" type="line"/>
      <point x="110" y="530"/>
      <point x="140" y="570"/>
      <point x="140" y="600" type="curve" smooth="yes"/>
      <point x="140" y="620"/>
      <point x="130" y="630"/>
      <point x="115" y="630" type="curve" smooth="yes"/>
      <point x="75" y="630"/>
      <point x="50" y="665"/>
      <point x="50" y="700" type="curve" smooth="yes"/>
      <point x="50" y="735"/>
      <point x="75" y="765"/>
      <point x="115" y="765" type="curve" smooth="yes"/>
      <point x="180" y="765"/>
      <point x="200" y="710"/>
      <point x="200" y="680" type="curve" smooth="yes"/>
      <point x="200" y="610"/>
      <point x="190" y="530"/>
    </contour>
  </outline>
</glyph>
